v -0.030064 0.122355 -0.027439
vn -1.000000 0.000000 0.000000
v -0.030064 0.163140 -0.050000
vn -1.000000 0.000000 0.000000
v -0.030064 -0.163140 -0.050000
vn -1.000000 0.000000 0.000000
v 0.030064 0.163140 0.050000
vn 0.000000 0.000000 1.000000
v -0.030064 0.122355 0.050000
vn 0.000000 0.000000 1.000000
v 0.030064 0.122355 0.050000
vn 0.000000 0.000000 1.000000
v 0.030064 0.122355 -0.027439
vn 1.000000 0.000000 -0.000000
v 0.030064 -0.127249 -0.027439
vn 1.000000 0.000000 -0.000000
v 0.030064 -0.163140 -0.050000
vn 1.000000 0.000000 -0.000000
v 0.030064 -0.163140 -0.050000
vn 0.000000 -1.000000 -0.000000
v -0.030064 -0.163140 0.050000
vn 0.000000 -1.000000 -0.000000
v -0.030064 -0.163140 -0.050000
vn 0.000000 -1.000000 -0.000000
v 0.030064 0.122355 -0.027439
vn 0.000000 0.000000 1.000000
v -0.030064 -0.127249 -0.027439
vn 0.000000 0.000000 1.000000
v 0.030064 -0.127249 -0.027439
vn 0.000000 0.000000 1.000000
v -0.030064 -0.127249 0.050000
vn 0.000000 1.000000 -0.000000
v 0.030064 -0.127249 -0.027439
vn 0.000000 1.000000 -0.000000
v -0.030064 -0.127249 -0.027439
vn 0.000000 1.000000 -0.000000
v 0.030064 -0.127249 0.050000
vn 0.000000 0.000000 1.000000
v -0.030064 -0.163140 0.050000
vn 0.000000 0.000000 1.000000
v 0.030064 -0.163140 0.050000
vn 0.000000 0.000000 1.000000
v -0.030064 0.163140 -0.050000
vn 0.000000 0.000000 -1.000000
v 0.030064 -0.163140 -0.050000
vn 0.000000 0.000000 -1.000000
v -0.030064 -0.163140 -0.050000
vn 0.000000 0.000000 -1.000000
v -0.030064 0.122355 0.050000
vn 0.000000 -1.000000 -0.000000
v 0.030064 0.122355 -0.027439
vn 0.000000 -1.000000 -0.000000
v 0.030064 0.122355 0.050000
vn 0.000000 -1.000000 -0.000000
v -0.030064 0.163140 -0.050000
vn 0.000000 1.000000 -0.000000
v 0.030064 0.163140 0.050000
vn 0.000000 1.000000 -0.000000
v 0.030064 0.163140 -0.050000
vn 0.000000 1.000000 -0.000000
v -0.030064 -0.163140 -0.050000
vn -1.000000 0.000000 -0.000000
v -0.030064 -0.163140 0.050000
vn -1.000000 0.000000 -0.000000
v -0.030064 -0.127249 -0.027439
vn -1.000000 0.000000 -0.000000
v -0.030064 -0.127249 0.050000
vn -1.000000 0.000000 -0.000000
v -0.030064 0.122355 0.050000
vn -1.000000 0.000000 -0.000000
v -0.030064 0.163140 0.050000
vn -1.000000 0.000000 -0.000000
v -0.030064 0.122355 -0.027439
vn -1.000000 0.000000 -0.000000
v -0.030064 0.163140 -0.050000
vn -1.000000 0.000000 -0.000000
v -0.030064 -0.163140 -0.050000
vn -1.000000 0.000000 -0.000000
v -0.030064 -0.127249 -0.027439
vn -1.000000 0.000000 -0.000000
v -0.030064 0.122355 -0.027439
vn -1.000000 0.000000 -0.000000
v -0.030064 0.163140 0.050000
vn 0.000000 0.000000 1.000000
v 0.030064 0.163140 -0.050000
vn 1.000000 0.000000 -0.000000
v 0.030064 0.163140 0.050000
vn 1.000000 0.000000 -0.000000
v 0.030064 0.122355 -0.027439
vn 1.000000 0.000000 -0.000000
v 0.030064 0.122355 0.050000
vn 1.000000 0.000000 -0.000000
v 0.030064 -0.127249 0.050000
vn 1.000000 0.000000 -0.000000
v 0.030064 -0.163140 0.050000
vn 1.000000 0.000000 -0.000000
v 0.030064 -0.127249 -0.027439
vn 1.000000 0.000000 -0.000000
v 0.030064 -0.163140 -0.050000
vn 1.000000 0.000000 -0.000000
v 0.030064 0.163140 -0.050000
vn 1.000000 0.000000 0.000000
v 0.030064 0.122355 -0.027439
vn 1.000000 0.000000 0.000000
v 0.030064 -0.163140 -0.050000
vn 1.000000 0.000000 0.000000
v 0.030064 -0.163140 0.050000
vn 0.000000 -1.000000 -0.000000
v -0.030064 0.122355 -0.027439
vn 0.000000 0.000000 1.000000
v 0.030064 -0.127249 0.050000
vn 0.000000 1.000000 -0.000000
v -0.030064 -0.127249 0.050000
vn 0.000000 0.000000 1.000000
v 0.030064 0.163140 -0.050000
vn 0.000000 0.000000 -1.000000
v -0.030064 0.122355 -0.027439
vn 0.000000 -1.000000 -0.000000
v -0.030064 0.163140 0.050000
vn 0.000000 1.000000 -0.000000
v 0.200000 0.233593 0.230000
vn 0.000000 0.000000 1.000000
v -0.200000 -0.510000 0.230000
vn 0.000000 0.000000 1.000000
v 0.200000 -0.510000 0.230000
vn 0.000000 0.000000 1.000000
v 0.200000 -0.510000 -0.192015
vn 0.000000 -1.000000 -0.000000
v -0.200000 -0.510000 -0.192015
vn 0.000000 -1.000000 -0.000000
v 0.166969 -0.510000 -0.230000
vn 0.000000 -1.000000 -0.000000
v -0.200000 0.510000 -0.133107
vn -1.000000 0.000000 -0.000000
v -0.200000 0.510000 -0.192015
vn -1.000000 0.000000 -0.000000
v -0.200000 0.233593 0.230000
vn -1.000000 0.000000 -0.000000
v 0.200000 -0.510000 -0.192015
vn 1.000000 0.000000 -0.000000
v 0.200000 0.510000 -0.192015
vn 1.000000 0.000000 -0.000000
v 0.200000 0.233593 0.230000
vn 1.000000 0.000000 -0.000000
v -0.200000 0.258125 0.221924
vn 0.000000 0.648912 0.760864
v 0.200000 0.254501 0.225015
vn 0.000000 0.648912 0.760864
v 0.200000 0.258125 0.221924
vn 0.000000 0.648912 0.760864
v -0.200000 0.254501 0.225015
vn 0.000000 0.403882 0.914811
v 0.200000 0.248567 0.227635
vn 0.000000 0.403882 0.914811
v 0.200000 0.254501 0.225015
vn 0.000000 0.403882 0.914811
v -0.200000 0.248567 0.227635
vn 0.000000 0.231952 0.972727
v 0.200000 0.241225 0.229385
vn 0.000000 0.231952 0.972727
v 0.200000 0.248567 0.227635
vn 0.000000 0.231952 0.972727
v -0.200000 0.241225 0.229385
vn 0.000000 0.080300 0.996771
v 0.200000 0.233593 0.230000
vn 0.000000 0.080300 0.996771
v 0.200000 0.241225 0.229385
vn 0.000000 0.080300 0.996771
v 0.200000 0.510000 -0.133107
vn 0.000000 0.815597 0.578621
v -0.200000 0.258125 0.221924
vn 0.000000 0.815597 0.578621
v 0.200000 0.258125 0.221924
vn 0.000000 0.815597 0.578621
v -0.166969 -0.510000 -0.230000
vn -0.222991 0.000000 -0.974821
v -0.179609 0.510000 -0.227108
vn -0.222991 0.000000 -0.974821
v -0.166969 0.510000 -0.230000
vn -0.222991 0.000000 -0.974821
v -0.179609 -0.510000 -0.227108
vn -0.609300 0.000000 -0.792940
v -0.190325 0.510000 -0.218874
vn -0.609300 0.000000 -0.792940
v -0.179609 0.510000 -0.227108
vn -0.609300 0.000000 -0.792940
v -0.190325 -0.510000 -0.218874
vn -0.864647 0.000000 -0.502380
v -0.197486 0.510000 -0.206551
vn -0.864647 0.000000 -0.502380
v -0.190325 0.510000 -0.218874
vn -0.864647 0.000000 -0.502380
v -0.197486 -0.510000 -0.206551
vn -0.985369 0.000000 -0.170436
v -0.200000 0.510000 -0.192015
vn -0.985369 0.000000 -0.170436
v -0.197486 0.510000 -0.206551
vn -0.985369 0.000000 -0.170436
v 0.200000 -0.510000 -0.192015
vn 0.985369 0.000000 -0.170436
v 0.197486 0.510000 -0.206551
vn 0.985369 0.000000 -0.170436
v 0.200000 0.510000 -0.192015
vn 0.985369 0.000000 -0.170436
v 0.197486 -0.510000 -0.206551
vn 0.864645 0.000000 -0.502383
v 0.190325 0.510000 -0.218874
vn 0.864645 0.000000 -0.502383
v 0.197486 0.510000 -0.206551
vn 0.864645 0.000000 -0.502383
v 0.190325 -0.510000 -0.218874
vn 0.609300 0.000000 -0.792940
v 0.179609 0.510000 -0.227108
vn 0.609300 0.000000 -0.792940
v 0.190325 0.510000 -0.218874
vn 0.609300 0.000000 -0.792940
v 0.179609 -0.510000 -0.227108
vn 0.222991 0.000000 -0.974821
v 0.166969 0.510000 -0.230000
vn 0.222991 0.000000 -0.974821
v 0.179609 0.510000 -0.227108
vn 0.222991 0.000000 -0.974821
v -0.166969 0.510000 -0.230000
vn 0.000000 0.000000 -1.000000
v 0.166969 -0.510000 -0.230000
vn 0.000000 0.000000 -1.000000
v -0.166969 -0.510000 -0.230000
vn 0.000000 0.000000 -1.000000
v 0.200000 0.510000 -0.192015
vn 0.000000 1.000000 -0.000000
v 0.200000 0.510000 -0.133107
vn 0.000000 1.000000 -0.000000
v 0.200000 0.510000 -0.133107
vn 0.000000 1.000000 -0.000000
v -0.190325 0.510000 -0.218874
vn 0.000000 1.000000 -0.000000
v -0.179609 0.510000 -0.227108
vn 0.000000 1.000000 -0.000000
v -0.179609 0.510000 -0.227108
vn 0.000000 1.000000 -0.000000
v -0.200000 0.510000 -0.133107
vn 0.000000 1.000000 -0.000000
v -0.200000 0.510000 -0.192015
vn 0.000000 1.000000 -0.000000
v -0.200000 0.510000 -0.192015
vn 0.000000 1.000000 -0.000000
v -0.200000 0.510000 -0.133107
vn 0.000000 1.000000 -0.000000
v 0.166969 0.510000 -0.230000
vn 0.000000 1.000000 -0.000000
v 0.179609 0.510000 -0.227108
vn 0.000000 1.000000 -0.000000
v 0.179609 0.510000 -0.227108
vn 0.000000 1.000000 -0.000000
v 0.197486 0.510000 -0.206551
vn 0.000000 1.000000 -0.000000
v 0.200000 0.510000 -0.192015
vn 0.000000 1.000000 -0.000000
v 0.190325 0.510000 -0.218874
vn 0.000000 1.000000 -0.000000
v 0.190325 0.510000 -0.218874
vn 0.000000 1.000000 -0.000000
v -0.166969 0.510000 -0.230000
vn 0.000000 1.000000 -0.000000
v 0.166969 0.510000 -0.230000
vn 0.000000 1.000000 -0.000000
v -0.197486 0.510000 -0.206551
vn 0.000000 1.000000 -0.000000
v -0.197486 0.510000 -0.206551
vn 0.000000 1.000000 -0.000000
v 0.197486 0.510000 -0.206551
vn 0.000000 1.000000 -0.000000
v -0.166969 0.510000 -0.230000
vn 0.000000 1.000000 -0.000000
v -0.190325 0.510000 -0.218874
vn 0.000000 1.000000 -0.000000
v 0.190325 0.510000 -0.218874
vn -0.000008 1.000000 -0.000000
v 0.191995 0.510000 -0.205795
vn -0.000008 1.000000 -0.000000
v 0.197486 0.510000 -0.206551
vn -0.000008 1.000000 -0.000000
v -0.191995 0.510000 -0.205795
vn 0.000000 1.000000 -0.000000
v -0.185034 0.510000 -0.216352
vn 0.000000 1.000000 -0.000000
v -0.194440 0.510000 -0.142876
vn 0.000000 1.000000 -0.000000
v -0.194440 0.510000 -0.193342
vn 0.000000 1.000000 -0.000000
v 0.179609 0.510000 -0.227108
vn 0.000003 1.000000 -0.000000
v 0.185034 0.510000 -0.216352
vn 0.000003 1.000000 -0.000000
v 0.190325 0.510000 -0.218874
vn 0.000003 1.000000 -0.000000
v -0.197486 0.510000 -0.206551
vn -0.000013 1.000000 -0.000000
v -0.194440 0.510000 -0.193342
vn -0.000013 1.000000 -0.000000
v -0.191995 0.510000 -0.205795
vn -0.000013 1.000000 -0.000000
v 0.194440 0.510000 -0.142876
vn 0.000000 1.000000 -0.000000
v -0.174616 0.510000 -0.223407
vn 0.000000 1.000000 -0.000000
v -0.162327 0.510000 -0.225884
vn 0.000000 1.000000 -0.000000
v 0.174616 0.510000 -0.223407
vn 0.000000 1.000000 -0.000000
v 0.197486 0.510000 -0.206551
vn -0.000006 1.000000 -0.000000
v 0.194440 0.510000 -0.193342
vn -0.000006 1.000000 -0.000000
v 0.200000 0.510000 -0.192015
vn -0.000006 1.000000 -0.000000
v -0.179609 0.510000 -0.227108
vn -0.000006 1.000000 -0.000000
v -0.185034 0.510000 -0.216352
vn -0.000006 1.000000 -0.000000
v -0.174616 0.510000 -0.223407
vn -0.000006 1.000000 -0.000000
v 0.162327 0.510000 -0.225884
vn 0.000000 1.000000 -0.000000
v -0.191995 0.510000 -0.205795
vn 0.000000 1.000000 -0.000000
v 0.194440 0.510000 -0.193342
vn 0.000000 1.000000 -0.000000
v 0.194440 0.510000 -0.142876
vn 0.000000 1.000000 -0.000000
v -0.162327 0.510000 -0.225884
vn 0.000000 1.000000 -0.000000
v 0.174616 0.510000 -0.223407
vn 0.000000 1.000000 -0.000000
v 0.191995 0.510000 -0.205795
vn 0.000000 1.000000 -0.000000
v 0.194440 0.510000 -0.193342
vn 0.000000 1.000000 -0.000000
v -0.174616 0.510000 -0.223407
vn 0.000000 1.000000 -0.000000
v 0.162327 0.510000 -0.225884
vn 0.000000 1.000000 -0.000000
v 0.185034 0.510000 -0.216352
vn 0.000000 1.000000 -0.000000
v 0.191995 0.510000 -0.205795
vn 0.000000 1.000000 -0.000000
v -0.185034 0.510000 -0.216352
vn 0.000000 1.000000 -0.000000
v -0.194440 0.510000 -0.193342
vn 0.000000 1.000000 -0.000000
v -0.194440 0.510000 -0.142876
vn 0.000000 1.000000 -0.000000
v 0.185034 0.510000 -0.216352
vn 0.000000 1.000000 -0.000000
v 0.174616 0.510000 -0.223407
vn -0.560679 0.000000 0.828033
v 0.185034 0.104098 -0.216352
vn -0.560679 0.000000 0.828033
v 0.185034 0.510000 -0.216352
vn -0.560679 0.000000 0.828033
v -0.194440 0.510000 -0.193342
vn 0.981275 0.000000 0.192613
v -0.191995 0.104098 -0.205795
vn 0.981275 0.000000 0.192613
v -0.191995 0.510000 -0.205795
vn 0.981275 0.000000 0.192613
v 0.194440 0.510000 -0.193342
vn -1.000000 0.000000 -0.000000
v 0.194440 0.104098 -0.142876
vn -1.000000 0.000000 -0.000000
v 0.194440 0.510000 -0.142876
vn -1.000000 0.000000 -0.000000
v -0.174616 0.510000 -0.223407
vn 0.197602 0.000000 0.980282
v -0.162327 0.104098 -0.225884
vn 0.197602 0.000000 0.980282
v -0.162327 0.510000 -0.225884
vn 0.197602 0.000000 0.980282
v 0.162327 0.510000 -0.225884
vn -0.197601 0.000000 0.980283
v 0.174616 0.104098 -0.223407
vn -0.197601 0.000000 0.980283
v 0.174616 0.510000 -0.223407
vn -0.197601 0.000000 0.980283
v 0.191995 0.510000 -0.205795
vn -0.981275 0.000000 0.192613
v 0.194440 0.104098 -0.193342
vn -0.981275 0.000000 0.192613
v 0.194440 0.510000 -0.193342
vn -0.981275 0.000000 0.192613
v -0.185034 0.510000 -0.216352
vn 0.560678 0.000000 0.828034
v -0.174616 0.104098 -0.223407
vn 0.560678 0.000000 0.828034
v -0.174616 0.510000 -0.223407
vn 0.560678 0.000000 0.828034
v -0.162327 0.510000 -0.225884
vn 0.000000 0.000000 1.000000
v 0.162327 0.104098 -0.225884
vn 0.000000 0.000000 1.000000
v 0.162327 0.510000 -0.225884
vn 0.000000 0.000000 1.000000
v 0.185034 0.510000 -0.216352
vn -0.834857 0.000000 0.550467
v 0.191995 0.104098 -0.205795
vn -0.834857 0.000000 0.550467
v 0.191995 0.510000 -0.205795
vn -0.834857 0.000000 0.550467
v -0.191995 0.510000 -0.205795
vn 0.834856 0.000000 0.550469
v -0.185034 0.104098 -0.216352
vn 0.834856 0.000000 0.550469
v -0.185034 0.510000 -0.216352
vn 0.834856 0.000000 0.550469
v -0.194440 0.510000 -0.142876
vn 1.000000 0.000000 -0.000000
v -0.194440 0.104098 -0.193342
vn 1.000000 0.000000 -0.000000
v -0.194440 0.510000 -0.193342
vn 1.000000 0.000000 -0.000000
v 0.194440 0.510000 -0.142876
vn 0.000000 0.000000 -1.000000
v -0.194440 0.104098 -0.142876
vn 0.000000 0.000000 -1.000000
v -0.194440 0.510000 -0.142876
vn 0.000000 0.000000 -1.000000
v -0.191995 0.104098 -0.205795
vn 0.000000 1.000000 -0.000000
v -0.194440 0.104098 -0.193342
vn 0.000000 1.000000 -0.000000
v -0.162327 0.104098 -0.225884
vn 0.000000 1.000000 -0.000000
v -0.200000 0.233593 0.230000
vn 0.000000 0.000000 1.000000
v -0.200000 -0.510000 0.230000
vn 0.000000 -1.000000 -0.000000
v -0.200000 -0.510000 -0.192015
vn 0.000005 -1.000000 -0.000000
v -0.197486 -0.510000 -0.206551
vn 0.000005 -1.000000 -0.000000
v -0.166969 -0.510000 -0.230000
vn 0.000005 -1.000000 -0.000000
v -0.166969 -0.510000 -0.230000
vn 0.000000 -1.000000 -0.000000
v -0.197486 -0.510000 -0.206551
vn 0.000000 -1.000000 -0.000000
v -0.190325 -0.510000 -0.218874
vn 0.000000 -1.000000 -0.000000
v -0.190325 -0.510000 -0.218874
vn -0.000010 -1.000000 -0.000000
v -0.179609 -0.510000 -0.227108
vn -0.000010 -1.000000 -0.000000
v -0.166969 -0.510000 -0.230000
vn -0.000010 -1.000000 -0.000000
v 0.166969 -0.510000 -0.230000
vn 0.000013 -1.000000 -0.000000
v 0.179609 -0.510000 -0.227108
vn 0.000013 -1.000000 -0.000000
v 0.190325 -0.510000 -0.218874
vn 0.000013 -1.000000 -0.000000
v 0.190325 -0.510000 -0.218874
vn 0.000000 -1.000000 -0.000000
v 0.197486 -0.510000 -0.206551
vn 0.000000 -1.000000 -0.000000
v 0.200000 -0.510000 0.230000
vn 0.000000 -1.000000 -0.000000
v -0.200000 -0.510000 0.230000
vn -1.000000 0.000000 -0.000000
v -0.200000 -0.510000 -0.192015
vn -1.000000 0.000000 -0.000000
v -0.200000 0.241225 0.229385
vn -1.000000 0.000000 -0.000000
v -0.200000 0.258125 0.221924
vn -1.000000 0.000000 -0.000000
v -0.200000 -0.510000 -0.192015
vn -1.000000 0.000000 -0.000000
v -0.200000 0.233593 0.230000
vn -1.000000 0.000000 -0.000000
v -0.200000 0.510000 -0.192015
vn -1.000000 0.000000 -0.000000
v -0.200000 0.248567 0.227635
vn -1.000000 0.000000 -0.000000
v -0.200000 0.254501 0.225015
vn -1.000000 0.000000 -0.000000
v -0.200000 0.258125 0.221924
vn -1.000000 0.000000 0.000001
v -0.200000 0.510000 -0.133107
vn -1.000000 0.000000 0.000001
v -0.200000 0.233593 0.230000
vn -1.000000 0.000000 0.000001
v 0.200000 0.510000 -0.192015
vn 1.000000 0.000000 -0.000000
v 0.200000 0.510000 -0.133107
vn 1.000000 0.000000 -0.000000
v 0.200000 0.233593 0.230000
vn 1.000000 0.000000 -0.000000
v 0.200000 0.510000 -0.133107
vn 1.000000 0.000000 0.000001
v 0.200000 0.258125 0.221924
vn 1.000000 0.000000 0.000001
v 0.200000 0.233593 0.230000
vn 1.000000 0.000000 0.000001
v 0.200000 0.258125 0.221924
vn 1.000000 0.000000 -0.000000
v 0.200000 0.254501 0.225015
vn 1.000000 0.000000 -0.000000
v 0.200000 0.248567 0.227635
vn 1.000000 0.000000 -0.000000
v 0.200000 0.241225 0.229385
vn 1.000000 0.000000 -0.000000
v 0.200000 -0.510000 0.230000
vn 1.000000 0.000000 -0.000000
v 0.200000 -0.510000 -0.192015
vn 1.000000 0.000000 -0.000000
v -0.200000 0.258125 0.221924
vn 0.000000 0.648907 0.760868
v -0.200000 0.254501 0.225015
vn 0.000000 0.648907 0.760868
v 0.200000 0.254501 0.225015
vn 0.000000 0.648907 0.760868
v -0.200000 0.248567 0.227635
vn 0.000000 0.403882 0.914811
v -0.200000 0.248567 0.227635
vn 0.000000 0.231943 0.972730
v -0.200000 0.241225 0.229385
vn 0.000000 0.231943 0.972730
v 0.200000 0.241225 0.229385
vn 0.000000 0.231943 0.972730
v -0.200000 0.241225 0.229385
vn 0.000000 0.080290 0.996772
v -0.200000 0.233593 0.230000
vn 0.000000 0.080290 0.996772
v 0.200000 0.233593 0.230000
vn 0.000000 0.080290 0.996772
v -0.200000 0.510000 -0.133107
vn 0.000000 0.815597 0.578621
v -0.179609 -0.510000 -0.227108
vn -0.222991 0.000000 -0.974821
v -0.190325 -0.510000 -0.218874
vn -0.609300 0.000000 -0.792940
v -0.190325 -0.510000 -0.218874
vn -0.864645 0.000000 -0.502383
v -0.197486 -0.510000 -0.206551
vn -0.864645 0.000000 -0.502383
v -0.197486 0.510000 -0.206551
vn -0.864645 0.000000 -0.502383
v -0.200000 -0.510000 -0.192015
vn -0.985369 0.000000 -0.170436
v 0.197486 -0.510000 -0.206551
vn 0.985369 0.000000 -0.170436
v 0.197486 -0.510000 -0.206551
vn 0.864647 0.000000 -0.502380
v 0.190325 -0.510000 -0.218874
vn 0.864647 0.000000 -0.502380
v 0.190325 0.510000 -0.218874
vn 0.864647 0.000000 -0.502380
v 0.179609 -0.510000 -0.227108
vn 0.609300 0.000000 -0.792940
v 0.166969 -0.510000 -0.230000
vn 0.222991 0.000000 -0.974821
v 0.166969 0.510000 -0.230000
vn 0.000000 0.000000 -1.000000
v -0.190325 0.510000 -0.218874
vn 0.000008 1.000000 -0.000000
v -0.197486 0.510000 -0.206551
vn 0.000008 1.000000 -0.000000
v -0.191995 0.510000 -0.205795
vn 0.000008 1.000000 -0.000000
v 0.179609 0.510000 -0.227108
vn 0.000006 1.000000 -0.000000
v 0.174616 0.510000 -0.223407
vn 0.000006 1.000000 -0.000000
v 0.185034 0.510000 -0.216352
vn 0.000006 1.000000 -0.000000
v -0.197486 0.510000 -0.206551
vn 0.000006 1.000000 -0.000000
v -0.200000 0.510000 -0.192015
vn 0.000006 1.000000 -0.000000
v -0.194440 0.510000 -0.193342
vn 0.000006 1.000000 -0.000000
v 0.197486 0.510000 -0.206551
vn 0.000013 1.000000 -0.000000
v 0.191995 0.510000 -0.205795
vn 0.000013 1.000000 -0.000000
v 0.194440 0.510000 -0.193342
vn 0.000013 1.000000 -0.000000
v -0.179609 0.510000 -0.227108
vn -0.000003 1.000000 -0.000000
v -0.190325 0.510000 -0.218874
vn -0.000003 1.000000 -0.000000
v -0.185034 0.510000 -0.216352
vn -0.000003 1.000000 -0.000000
v 0.174616 0.510000 -0.223407
vn -0.560678 0.000000 0.828034
v 0.174616 0.104098 -0.223407
vn -0.560678 0.000000 0.828034
v 0.185034 0.104098 -0.216352
vn -0.560678 0.000000 0.828034
v -0.194440 0.510000 -0.193342
vn 0.981275 0.000000 0.192613
v -0.194440 0.104098 -0.193342
vn 0.981275 0.000000 0.192613
v -0.191995 0.104098 -0.205795
vn 0.981275 0.000000 0.192613
v 0.194440 0.104098 -0.193342
vn -1.000000 0.000000 -0.000000
v -0.174616 0.510000 -0.223407
vn 0.197601 0.000000 0.980283
v -0.174616 0.104098 -0.223407
vn 0.197601 0.000000 0.980283
v -0.162327 0.104098 -0.225884
vn 0.197601 0.000000 0.980283
v 0.162327 0.510000 -0.225884
vn -0.197602 0.000000 0.980282
v 0.162327 0.104098 -0.225884
vn -0.197602 0.000000 0.980282
v 0.174616 0.104098 -0.223407
vn -0.197602 0.000000 0.980282
v 0.191995 0.510000 -0.205795
vn -0.981275 0.000000 0.192613
v 0.191995 0.104098 -0.205795
vn -0.981275 0.000000 0.192613
v 0.194440 0.104098 -0.193342
vn -0.981275 0.000000 0.192613
v -0.185034 0.510000 -0.216352
vn 0.560679 0.000000 0.828033
v -0.185034 0.104098 -0.216352
vn 0.560679 0.000000 0.828033
v -0.174616 0.104098 -0.223407
vn 0.560679 0.000000 0.828033
v -0.162327 0.104098 -0.225884
vn 0.000000 0.000000 1.000000
v 0.185034 0.510000 -0.216352
vn -0.834856 0.000000 0.550469
v 0.185034 0.104098 -0.216352
vn -0.834856 0.000000 0.550469
v 0.191995 0.104098 -0.205795
vn -0.834856 0.000000 0.550469
v -0.191995 0.510000 -0.205795
vn 0.834857 0.000000 0.550467
v -0.191995 0.104098 -0.205795
vn 0.834857 0.000000 0.550467
v -0.185034 0.104098 -0.216352
vn 0.834857 0.000000 0.550467
v -0.194440 0.104098 -0.142876
vn 1.000000 0.000000 -0.000000
v 0.194440 0.104098 -0.142876
vn 0.000000 0.000000 -1.000000
v -0.194440 0.104098 -0.142876
vn 0.000000 1.000000 -0.000000
v 0.194440 0.104098 -0.142876
vn 0.000000 1.000000 -0.000000
v 0.162327 0.104098 -0.225884
vn 0.000000 1.000000 -0.000000
v 0.194440 0.104098 -0.142876
vn 0.000001 1.000000 -0.000000
v 0.194440 0.104098 -0.193342
vn 0.000001 1.000000 -0.000000
v 0.162327 0.104098 -0.225884
vn 0.000001 1.000000 -0.000000
v 0.194440 0.104098 -0.193342
vn 0.000000 1.000000 -0.000000
v 0.191995 0.104098 -0.205795
vn 0.000000 1.000000 -0.000000
v 0.191995 0.104098 -0.205795
vn -0.000001 1.000000 -0.000000
v 0.185034 0.104098 -0.216352
vn -0.000001 1.000000 -0.000000
v 0.162327 0.104098 -0.225884
vn -0.000001 1.000000 -0.000000
v 0.185034 0.104098 -0.216352
vn -0.000001 1.000000 -0.000000
v 0.174616 0.104098 -0.223407
vn -0.000001 1.000000 -0.000000
v 0.162327 0.104098 -0.225884
vn -0.000001 1.000000 -0.000000
v -0.162327 0.104098 -0.225884
vn 0.000002 1.000000 -0.000000
v -0.174616 0.104098 -0.223407
vn 0.000002 1.000000 -0.000000
v -0.185034 0.104098 -0.216352
vn 0.000002 1.000000 -0.000000
v -0.194440 0.104098 -0.142876
vn -0.000001 1.000000 -0.000000
v -0.162327 0.104098 -0.225884
vn -0.000001 1.000000 -0.000000
v -0.194440 0.104098 -0.193342
vn -0.000001 1.000000 -0.000000
v -0.185034 0.104098 -0.216352
vn 0.000000 1.000000 -0.000000
f 1//1 2//2 3//3
f 4//4 5//5 6//6
f 7//7 8//8 9//9
f 10//10 11//11 12//12
f 13//13 14//14 15//15
f 16//16 17//17 18//18
f 19//19 20//20 21//21
f 22//22 23//23 24//24
f 25//25 26//26 27//27
f 28//28 29//29 30//30
f 31//31 32//32 33//33
f 32//32 34//34 33//33
f 35//35 36//36 37//37
f 36//36 38//38 37//37
f 39//39 40//40 41//41
f 4//4 42//42 5//5
f 43//43 44//44 45//45
f 44//44 46//46 45//45
f 47//47 48//48 49//49
f 48//48 50//50 49//49
f 51//51 52//52 53//53
f 10//10 54//54 11//11
f 13//13 55//55 14//14
f 16//16 56//56 17//17
f 19//19 57//57 20//20
f 22//22 58//58 23//23
f 25//25 59//59 26//26
f 28//28 60//60 29//29
f 61//61 62//62 63//63
f 64//64 65//65 66//66
f 67//67 68//68 69//69
f 70//70 71//71 72//72
f 73//73 74//74 75//75
f 76//76 77//77 78//78
f 79//79 80//80 81//81
f 82//82 83//83 84//84
f 85//85 86//86 87//87
f 88//88 89//89 90//90
f 91//91 92//92 93//93
f 94//94 95//95 96//96
f 97//97 98//98 99//99
f 100//100 101//101 102//102
f 103//103 104//104 105//105
f 106//106 107//107 108//108
f 109//109 110//110 111//111
f 112//112 113//113 114//114
f 115//115 116//116 117//117
f 118//118 119//119 120//120
f 121//121 122//122 123//123
f 117//117 124//124 121//121
f 125//125 126//126 127//127
f 128//128 129//129 115//115
f 127//127 130//130 131//131
f 132//132 133//133 125//125
f 123//123 134//134 135//135
f 131//131 136//136 128//128
f 120//120 137//137 132//132
f 135//135 138//138 118//118
f 139//139 140//140 141//141
f 138//138 142//142 143//143
f 122//122 144//144 145//145
f 116//116 144//144 124//124
f 146//146 147//147 148//148
f 149//149 150//150 151//151
f 129//129 152//152 116//116
f 137//137 153//153 154//154
f 133//133 155//155 126//126
f 156//156 157//157 158//158
f 159//159 160//160 161//161
f 137//137 162//162 133//133
f 145//145 163//163 142//142
f 164//164 165//165 152//152
f 153//153 166//166 154//154
f 162//162 167//167 155//155
f 168//168 169//169 164//164
f 143//143 170//170 153//153
f 154//154 171//171 162//162
f 172//172 173//173 168//168
f 142//142 174//174 143//143
f 144//144 175//175 145//145
f 152//152 176//176 144//144
f 155//155 177//177 172//172
f 178//178 179//179 180//180
f 181//181 182//182 183//183
f 184//184 185//185 186//186
f 187//187 188//188 189//189
f 190//190 191//191 192//192
f 193//193 194//194 195//195
f 196//196 197//197 198//198
f 199//199 200//200 201//201
f 202//202 203//203 204//204
f 205//205 206//206 207//207
f 208//208 209//209 210//210
f 211//211 212//212 213//213
f 214//214 215//215 216//216
f 61//61 217//217 62//62
f 218//218 65//65 64//64
f 219//219 220//220 221//221
f 222//222 223//223 224//224
f 225//225 226//226 227//227
f 222//222 66//66 65//65
f 228//228 229//229 230//230
f 231//231 232//232 66//66
f 232//232 64//64 66//66
f 64//64 233//233 218//218
f 234//234 69//69 235//235
f 69//69 236//236 237//237
f 238//238 239//239 240//240
f 236//236 241//241 237//237
f 241//241 242//242 237//237
f 243//243 244//244 245//245
f 246//246 247//247 248//248
f 249//249 250//250 251//251
f 252//252 253//253 254//254
f 254//254 255//255 252//252
f 255//255 248//248 252//252
f 248//248 256//256 257//257
f 258//258 259//259 260//260
f 76//76 261//261 77//77
f 262//262 263//263 264//264
f 265//265 266//266 267//267
f 85//85 268//268 86//86
f 88//88 269//269 89//89
f 91//91 270//270 92//92
f 271//271 272//272 273//273
f 97//97 274//274 98//98
f 100//100 275//275 101//101
f 276//276 277//277 278//278
f 106//106 279//279 107//107
f 109//109 280//280 110//110
f 112//112 281//281 113//113
f 115//115 129//129 116//116
f 118//118 138//138 119//119
f 121//121 124//124 122//122
f 117//117 116//116 124//124
f 125//125 133//133 126//126
f 128//128 136//136 129//129
f 127//127 126//126 130//130
f 132//132 137//137 133//133
f 123//123 122//122 134//134
f 131//131 130//130 136//136
f 120//120 119//119 137//137
f 135//135 134//134 138//138
f 130//130 172//172 168//168
f 282//282 283//283 284//284
f 122//122 124//124 144//144
f 116//116 152//152 144//144
f 285//285 286//286 287//287
f 288//288 289//289 290//290
f 129//129 164//164 152//152
f 137//137 119//119 153//153
f 133//133 162//162 155//155
f 291//291 292//292 293//293
f 294//294 295//295 296//296
f 137//137 154//154 162//162
f 145//145 175//175 163//163
f 164//164 169//169 165//165
f 153//153 170//170 166//166
f 162//162 171//171 167//167
f 168//168 173//173 169//169
f 143//143 174//174 170//170
f 154//154 166//166 171//171
f 172//172 177//177 173//173
f 142//142 163//163 174//174
f 144//144 176//176 175//175
f 152//152 165//165 176//176
f 155//155 167//167 177//177
f 297//297 298//298 299//299
f 300//300 301//301 302//302
f 184//184 303//303 185//185
f 304//304 305//305 306//306
f 307//307 308//308 309//309
f 310//310 311//311 312//312
f 313//313 314//314 315//315
f 199//199 316//316 200//200
f 317//317 318//318 319//319
f 320//320 321//321 322//322
f 208//208 323//323 209//209
f 211//211 324//324 212//212
f 325//325 326//326 327//327
f 328//328 329//329 330//330
f 331//331 332//332 327//327
f 333//333 334//334 335//335
f 336//336 337//337 338//338
f 327//327 216//216 325//325
f 339//339 340//340 341//341
f 342//342 343//343 344//344
f 345//345 214//214 216//216
