v -0.106168 0.063656 0.328922
vn -0.595483 0.595482 0.539260
v -0.142892 0.142847 0.200922
vn -0.595483 0.595482 0.539260
v -0.178614 0.107124 0.200922
vn -0.595483 0.595482 0.539260
v 0.063700 0.106123 0.328922
vn 0.595483 0.595482 0.539260
v 0.142891 0.142847 0.200922
vn 0.595483 0.595482 0.539260
v 0.107169 0.178570 0.200922
vn 0.595483 0.595482 0.539260
v 0.106168 -0.063744 0.328922
vn 0.595482 -0.595484 0.539260
v 0.142891 -0.142935 0.200922
vn 0.595482 -0.595484 0.539260
v 0.178614 -0.107213 0.200922
vn 0.595482 -0.595484 0.539260
v -0.063701 -0.106212 0.328922
vn -0.595482 -0.595484 0.539259
v -0.142892 -0.142935 0.200922
vn -0.595482 -0.595484 0.539259
v -0.107169 -0.178658 0.200922
vn -0.595482 -0.595484 0.539259
v 0.095774 -0.095818 -0.307713
vn 0.457601 -0.478878 -0.749185
v 0.127699 -0.127743 -0.267808
vn 0.457601 -0.478878 -0.749185
v 0.095774 -0.159668 -0.266901
vn 0.457601 -0.478878 -0.749185
v -0.063701 -0.063744 0.328922
vn 0.000000 0.000000 1.000000
v -0.084934 -0.084978 0.328922
vn 0.000000 0.000000 1.000000
v -0.063701 -0.106212 0.328922
vn 0.000000 0.000000 1.000000
v 0.063700 -0.063744 0.328922
vn 0.000000 -0.000001 1.000000
v 0.084934 -0.084978 0.328922
vn 0.000000 -0.000001 1.000000
v 0.106168 -0.063744 0.328922
vn 0.000000 -0.000001 1.000000
v 0.021233 -0.063744 0.328922
vn 0.000000 0.000000 1.000000
v 0.063700 -0.106212 0.328922
vn 0.000000 0.000000 1.000000
v 0.063700 -0.063744 0.328922
vn 0.000000 0.000000 1.000000
v -0.021233 -0.063744 0.328922
vn 0.000000 0.000000 1.000000
v 0.021233 -0.106212 0.328922
vn 0.000000 0.000000 1.000000
v -0.021233 -0.106212 0.328922
vn 0.000000 0.000000 1.000000
v 0.084934 0.084890 0.328922
vn 0.000000 -0.000002 1.000000
v 0.063700 0.063656 0.328922
vn 0.000000 -0.000002 1.000000
v 0.106168 0.063656 0.328922
vn 0.000000 -0.000002 1.000000
v 0.063700 0.063656 0.328922
vn 0.000000 0.000000 1.000000
v 0.106168 0.021189 0.328922
vn 0.000000 0.000000 1.000000
v 0.106168 0.063656 0.328922
vn 0.000000 0.000000 1.000000
v 0.063700 0.021189 0.328922
vn 0.000000 0.000000 1.000000
v 0.106168 -0.021277 0.328922
vn 0.000000 0.000000 1.000000
v 0.063700 -0.021277 0.328922
vn 0.000000 -0.000001 1.000000
v 0.106168 -0.063744 0.328922
vn 0.000000 -0.000001 1.000000
v 0.106168 -0.021277 0.328922
vn 0.000000 -0.000001 1.000000
v 0.021233 0.106123 0.328922
vn 0.000000 0.000000 1.000000
v 0.063700 0.106123 0.328922
vn 0.000000 0.000000 1.000000
v 0.021233 0.063656 0.328922
vn 0.000000 0.000000 1.000000
v 0.021233 0.021189 0.328922
vn 0.000000 0.000000 1.000000
v 0.063700 -0.021277 0.328922
vn 0.000000 0.000000 1.000000
v 0.021233 -0.021277 0.328922
vn 0.000000 -0.000001 1.000000
v 0.063700 -0.063744 0.328922
vn 0.000000 -0.000001 1.000000
v 0.063700 -0.021277 0.328922
vn 0.000000 -0.000001 1.000000
v -0.021233 0.106123 0.328922
vn 0.000000 0.000000 1.000000
v -0.021233 0.063656 0.328922
vn 0.000000 0.000000 1.000000
v -0.021233 0.021189 0.328922
vn 0.000000 0.000000 1.000000
v 0.021233 -0.021277 0.328922
vn 0.000000 0.000000 1.000000
v -0.021233 -0.021277 0.328922
vn 0.000000 -0.000001 1.000000
v 0.021233 -0.063744 0.328922
vn 0.000000 -0.000001 1.000000
v 0.021233 -0.021277 0.328922
vn 0.000000 -0.000001 1.000000
v -0.063701 0.106123 0.328922
vn 0.000000 0.000000 1.000000
v -0.063701 0.063656 0.328922
vn 0.000000 0.000000 1.000000
v -0.063701 0.021189 0.328922
vn 0.000000 0.000000 1.000000
v -0.021233 -0.021277 0.328922
vn 0.000000 0.000000 1.000000
v -0.063701 -0.021277 0.328922
vn 0.000000 -0.000001 1.000000
v -0.021233 -0.063744 0.328922
vn 0.000000 -0.000001 1.000000
v -0.021233 -0.021277 0.328922
vn 0.000000 -0.000001 1.000000
v -0.084934 0.084890 0.328922
vn 0.000000 0.000000 1.000000
v -0.106168 0.063656 0.328922
vn 0.000000 0.000000 1.000000
v -0.106168 0.021189 0.328922
vn 0.000000 0.000000 1.000000
v -0.063701 -0.021277 0.328922
vn 0.000000 0.000000 1.000000
v -0.106168 -0.021277 0.328922
vn 0.000000 -0.000001 1.000000
v -0.063701 -0.063744 0.328922
vn 0.000000 -0.000001 1.000000
v -0.063701 -0.021277 0.328922
vn 0.000000 -0.000001 1.000000
v -0.095774 -0.095818 -0.307713
vn -0.468293 -0.468292 -0.749269
v -0.127699 -0.127743 -0.267808
vn -0.468293 -0.468292 -0.749269
v -0.159624 -0.095818 -0.267808
vn -0.468293 -0.468292 -0.749269
v -0.031925 -0.095818 -0.307713
vn 0.000000 -0.538574 -0.842578
v -0.095774 -0.159668 -0.266901
vn 0.000000 -0.538574 -0.842578
v -0.095774 -0.095818 -0.307713
vn 0.000000 -0.538574 -0.842578
v 0.031925 -0.095818 -0.307713
vn 0.000000 -0.538574 -0.842578
v -0.031925 -0.159668 -0.266901
vn 0.000000 -0.538574 -0.842578
v -0.031925 -0.095818 -0.307713
vn 0.000000 -0.538574 -0.842578
v 0.095774 -0.095818 -0.307713
vn 0.000000 -0.538574 -0.842578
v 0.031925 -0.159668 -0.266901
vn 0.000000 -0.538574 -0.842578
v 0.031925 -0.095818 -0.307713
vn 0.000000 -0.538574 -0.842578
v -0.127699 0.127655 -0.267807
vn -0.468293 0.468294 -0.749268
v -0.095774 0.095730 -0.307713
vn -0.468293 0.468294 -0.749268
v -0.159624 0.095730 -0.267807
vn -0.468293 0.468294 -0.749268
v -0.095774 0.095730 -0.307713
vn -0.529999 0.000003 -0.847998
v -0.159624 0.031881 -0.267808
vn -0.529999 0.000003 -0.847998
v -0.159624 0.095730 -0.267807
vn -0.529999 0.000003 -0.847998
v -0.095774 0.031881 -0.307713
vn -0.529998 0.000000 -0.847999
v -0.159624 -0.031968 -0.267808
vn -0.529998 0.000000 -0.847999
v -0.159624 0.031881 -0.267808
vn -0.529998 0.000000 -0.847999
v -0.095774 -0.031969 -0.307713
vn -0.529998 0.000000 -0.847999
v -0.159624 -0.095818 -0.267808
vn -0.529998 0.000000 -0.847999
v -0.159624 -0.031968 -0.267808
vn -0.529998 0.000000 -0.847999
v -0.031925 0.159580 -0.268407
vn 0.000000 0.524238 -0.851572
v -0.095774 0.095730 -0.307713
vn 0.000000 0.524238 -0.851572
v -0.095774 0.159580 -0.268407
vn 0.000000 0.524238 -0.851572
v -0.031925 0.095730 -0.307713
vn 0.000000 0.000003 -1.000000
v -0.095774 0.031881 -0.307713
vn 0.000000 0.000003 -1.000000
v -0.095774 0.095730 -0.307713
vn 0.000000 0.000003 -1.000000
v -0.031925 0.031881 -0.307713
vn 0.000000 0.000000 -1.000000
v -0.095774 -0.031969 -0.307713
vn 0.000000 0.000000 -1.000000
v -0.095774 0.031881 -0.307713
vn 0.000000 0.000000 -1.000000
v -0.031925 -0.031969 -0.307713
vn 0.000000 0.000000 -1.000000
v -0.095774 -0.095818 -0.307713
vn 0.000000 0.000000 -1.000000
v 0.031925 0.159580 -0.268407
vn 0.000000 0.524238 -0.851572
v -0.031925 0.095730 -0.307713
vn 0.000000 0.524238 -0.851572
v -0.031925 0.159580 -0.268407
vn 0.000000 0.524238 -0.851572
v 0.031925 0.095730 -0.307713
vn 0.000000 0.000003 -1.000000
v -0.031925 0.031881 -0.307713
vn 0.000000 0.000003 -1.000000
v -0.031925 0.095730 -0.307713
vn 0.000000 0.000003 -1.000000
v 0.031925 0.031881 -0.307713
vn 0.000000 0.000000 -1.000000
v 0.031925 -0.031969 -0.307713
vn 0.000000 0.000000 -1.000000
v -0.031925 -0.095818 -0.307713
vn 0.000000 0.000000 -1.000000
v 0.095774 0.159580 -0.268407
vn 0.000000 0.524238 -0.851572
v 0.031925 0.095730 -0.307713
vn 0.000000 0.524238 -0.851572
v 0.031925 0.159580 -0.268407
vn 0.000000 0.524238 -0.851572
v 0.095774 0.095730 -0.307713
vn 0.000000 0.000003 -1.000000
v 0.031925 0.031881 -0.307713
vn 0.000000 0.000003 -1.000000
v 0.031925 0.095730 -0.307713
vn 0.000000 0.000003 -1.000000
v 0.095774 0.031881 -0.307713
vn 0.000000 0.000000 -1.000000
v 0.095774 -0.031969 -0.307713
vn 0.000000 0.000000 -1.000000
v 0.031925 -0.095818 -0.307713
vn 0.000000 0.000000 -1.000000
v 0.127699 0.127655 -0.267807
vn 0.475305 0.461235 -0.749231
v 0.095774 0.095730 -0.307713
vn 0.475305 0.461235 -0.749231
v 0.095774 0.159580 -0.268407
vn 0.475305 0.461235 -0.749231
v 0.159624 0.095730 -0.267807
vn 0.529999 0.000002 -0.847998
v 0.095774 0.031881 -0.307713
vn 0.529999 0.000002 -0.847998
v 0.095774 0.095730 -0.307713
vn 0.529999 0.000002 -0.847998
v 0.159624 0.031881 -0.267808
vn 0.529998 0.000000 -0.847999
v 0.095774 -0.031969 -0.307713
vn 0.529998 0.000000 -0.847999
v 0.095774 0.031881 -0.307713
vn 0.529998 0.000000 -0.847999
v 0.159624 -0.031968 -0.267808
vn 0.529998 0.000000 -0.847999
v 0.095774 -0.095818 -0.307713
vn 0.529998 0.000000 -0.847999
v -0.095774 -0.159668 -0.266901
vn -0.662682 -0.672064 -0.330428
v -0.148675 -0.148718 -0.183078
vn -0.662682 -0.672064 -0.330428
v -0.127699 -0.127743 -0.267808
vn -0.662682 -0.672064 -0.330428
v -0.111506 -0.185887 -0.183078
vn -0.701636 -0.701635 -0.124160
v -0.160000 -0.160044 -0.055078
vn -0.701636 -0.701635 -0.124160
v -0.148675 -0.148718 -0.183078
vn -0.701636 -0.701635 -0.124160
v -0.120000 -0.200044 0.072921
vn -0.707108 -0.707106 -0.000000
v -0.160000 -0.160044 -0.055078
vn -0.707108 -0.707106 -0.000000
v -0.120000 -0.200044 -0.055078
vn -0.707108 -0.707106 -0.000000
v -0.107169 -0.178658 0.200922
vn -0.694804 -0.694802 0.185735
v -0.160000 -0.160044 0.072921
vn -0.694804 -0.694802 0.185735
v -0.120000 -0.200044 0.072921
vn -0.694804 -0.694802 0.185735
v 0.148675 -0.148718 -0.183078
vn 0.662682 -0.672064 -0.330428
v 0.095774 -0.159668 -0.266901
vn 0.662682 -0.672064 -0.330428
v 0.127699 -0.127743 -0.267808
vn 0.662682 -0.672064 -0.330428
v 0.095774 -0.159668 -0.266901
vn 0.000000 -0.954400 -0.298532
v 0.037169 -0.185887 -0.183078
vn 0.000000 -0.954400 -0.298532
v 0.031925 -0.159668 -0.266901
vn 0.000000 -0.954400 -0.298532
v 0.037169 -0.185887 -0.183078
vn 0.000000 -0.954400 -0.298532
v -0.031925 -0.159668 -0.266901
vn 0.000000 -0.954400 -0.298532
v 0.031925 -0.159668 -0.266901
vn 0.000000 -0.954400 -0.298532
v -0.037169 -0.185887 -0.183078
vn 0.000000 -0.954400 -0.298532
v -0.095774 -0.159668 -0.266901
vn 0.000000 -0.954400 -0.298532
v -0.031925 -0.159668 -0.266901
vn 0.000000 -0.954400 -0.298532
v 0.160000 -0.160044 -0.055078
vn 0.701636 -0.701635 -0.124160
v 0.111506 -0.185887 -0.183078
vn 0.701636 -0.701635 -0.124160
v 0.148675 -0.148718 -0.183078
vn 0.701636 -0.701635 -0.124160
v 0.111506 -0.185887 -0.183078
vn 0.000000 -0.993939 -0.109929
v 0.040000 -0.200044 -0.055078
vn 0.000000 -0.993939 -0.109929
v 0.037169 -0.185887 -0.183078
vn 0.000000 -0.993939 -0.109929
v 0.037169 -0.185887 -0.183078
vn 0.000000 -0.993939 -0.109929
v -0.040000 -0.200044 -0.055078
vn 0.000000 -0.993939 -0.109929
v -0.037169 -0.185887 -0.183078
vn 0.000000 -0.993939 -0.109929
v -0.040000 -0.200044 -0.055078
vn 0.000000 -0.993939 -0.109929
v -0.111506 -0.185887 -0.183078
vn 0.000000 -0.993939 -0.109929
v -0.037169 -0.185887 -0.183078
vn 0.000000 -0.993939 -0.109929
v 0.160000 -0.160044 0.072921
vn 0.707108 -0.707106 -0.000000
v 0.120000 -0.200044 -0.055078
vn 0.707108 -0.707106 -0.000000
v 0.160000 -0.160044 -0.055078
vn 0.707108 -0.707106 -0.000000
v 0.120000 -0.200044 0.072921
vn 0.000000 -1.000000 -0.000000
v 0.040000 -0.200044 -0.055078
vn 0.000000 -1.000000 -0.000000
v 0.120000 -0.200044 -0.055078
vn 0.000000 -1.000000 -0.000000
v 0.040000 -0.200044 0.072921
vn 0.000000 -1.000000 -0.000000
v -0.040000 -0.200044 -0.055078
vn 0.000000 -1.000000 -0.000000
v 0.040000 -0.200044 -0.055078
vn 0.000000 -1.000000 -0.000000
v -0.040000 -0.200044 0.072921
vn 0.000000 -1.000000 -0.000000
v -0.120000 -0.200044 -0.055078
vn 0.000000 -1.000000 -0.000000
v 0.160000 -0.160044 0.072921
vn 0.694804 -0.694802 0.185735
v 0.107169 -0.178658 0.200922
vn 0.694804 -0.694802 0.185735
v 0.120000 -0.200044 0.072921
vn 0.694804 -0.694802 0.185735
v 0.107169 -0.178658 0.200922
vn 0.000000 -0.986329 0.164792
v 0.040000 -0.200044 0.072921
vn 0.000000 -0.986329 0.164792
v 0.120000 -0.200044 0.072921
vn 0.000000 -0.986329 0.164792
v 0.035723 -0.178658 0.200922
vn 0.000000 -0.986328 0.164792
v -0.040000 -0.200044 0.072921
vn 0.000000 -0.986328 0.164792
v 0.040000 -0.200044 0.072921
vn 0.000000 -0.986328 0.164792
v -0.040000 -0.200044 0.072921
vn 0.000000 -0.986329 0.164792
v -0.107169 -0.178658 0.200922
vn 0.000000 -0.986329 0.164792
v -0.120000 -0.200044 0.072921
vn 0.000000 -0.986329 0.164792
v 0.142891 -0.142935 0.200922
vn 0.595482 -0.595483 0.539259
v 0.063700 -0.106212 0.328922
vn 0.595482 -0.595483 0.539259
v 0.107169 -0.178658 0.200922
vn 0.595482 -0.595483 0.539259
v 0.063700 -0.106212 0.328922
vn 0.000000 -0.870275 0.492566
v 0.035723 -0.178658 0.200922
vn 0.000000 -0.870275 0.492566
v 0.107169 -0.178658 0.200922
vn 0.000000 -0.870275 0.492566
v 0.021233 -0.106212 0.328922
vn 0.000000 -0.870275 0.492566
v -0.035723 -0.178658 0.200922
vn 0.000000 -0.870275 0.492566
v 0.035723 -0.178658 0.200922
vn 0.000000 -0.870275 0.492566
v -0.035723 -0.178658 0.200922
vn 0.000000 -0.870275 0.492566
v -0.063701 -0.106212 0.328922
vn 0.000000 -0.870275 0.492566
v -0.107169 -0.178658 0.200922
vn 0.000000 -0.870275 0.492566
v 0.159624 -0.095818 -0.267808
vn 0.667388 -0.667388 -0.330435
v 0.148675 -0.148718 -0.183078
vn 0.667388 -0.667388 -0.330435
v 0.127699 -0.127743 -0.267808
vn 0.667388 -0.667388 -0.330435
v 0.185843 -0.111550 -0.183078
vn 0.701635 -0.701636 -0.124160
v 0.160000 -0.160044 -0.055078
vn 0.701635 -0.701636 -0.124160
v 0.148675 -0.148718 -0.183078
vn 0.701635 -0.701636 -0.124160
v 0.200000 -0.120044 0.072922
vn 0.707106 -0.707108 0.000000
v 0.160000 -0.160044 -0.055078
vn 0.707106 -0.707108 0.000000
v 0.200000 -0.120044 -0.055078
vn 0.707106 -0.707108 0.000000
v 0.178614 -0.107213 0.200922
vn 0.694803 -0.694803 0.185734
v 0.160000 -0.160044 0.072921
vn 0.694803 -0.694803 0.185734
v 0.200000 -0.120044 0.072922
vn 0.694803 -0.694803 0.185734
v 0.148675 0.148631 -0.183078
vn 0.667388 0.667388 -0.330435
v 0.159624 0.095730 -0.267807
vn 0.667388 0.667388 -0.330435
v 0.127699 0.127655 -0.267807
vn 0.667388 0.667388 -0.330435
v 0.159624 0.095730 -0.267807
vn 0.955306 0.000001 -0.295618
v 0.185843 0.037125 -0.183078
vn 0.955306 0.000001 -0.295618
v 0.159624 0.031881 -0.267808
vn 0.955306 0.000001 -0.295618
v 0.159624 0.031881 -0.267808
vn 0.955306 0.000000 -0.295618
v 0.185843 -0.037212 -0.183078
vn 0.955306 0.000000 -0.295618
v 0.159624 -0.031968 -0.267808
vn 0.955306 0.000000 -0.295618
v 0.185843 -0.037212 -0.183078
vn 0.955306 0.000000 -0.295618
v 0.159624 -0.095818 -0.267808
vn 0.955306 0.000000 -0.295618
v 0.159624 -0.031968 -0.267808
vn 0.955306 0.000000 -0.295618
v 0.160000 0.159956 -0.055078
vn 0.701635 0.701635 -0.124159
v 0.185843 0.111462 -0.183078
vn 0.701635 0.701635 -0.124159
v 0.148675 0.148631 -0.183078
vn 0.701635 0.701635 -0.124159
v 0.185843 0.111462 -0.183078
vn 0.993940 0.000000 -0.109928
v 0.200000 0.039956 -0.055078
vn 0.993940 0.000000 -0.109928
v 0.185843 0.037125 -0.183078
vn 0.993940 0.000000 -0.109928
v 0.185843 0.037125 -0.183078
vn 0.993940 0.000000 -0.109928
v 0.200000 -0.040044 -0.055078
vn 0.993940 0.000000 -0.109928
v 0.185843 -0.037212 -0.183078
vn 0.993940 0.000000 -0.109928
v 0.200000 -0.040044 -0.055078
vn 0.993940 0.000000 -0.109928
v 0.185843 -0.111550 -0.183078
vn 0.993940 0.000000 -0.109928
v 0.185843 -0.037212 -0.183078
vn 0.993940 0.000000 -0.109928
v 0.160000 0.159956 0.072922
vn 0.707106 0.707108 0.000000
v 0.200000 0.119956 -0.055078
vn 0.707106 0.707108 0.000000
v 0.160000 0.159956 -0.055078
vn 0.707106 0.707108 0.000000
v 0.200000 0.119956 0.072922
vn 1.000000 0.000000 -0.000000
v 0.200000 0.039956 -0.055078
vn 1.000000 0.000000 -0.000000
v 0.200000 0.119956 -0.055078
vn 1.000000 0.000000 -0.000000
v 0.200000 0.039956 0.072922
vn 1.000000 0.000000 0.000000
v 0.200000 -0.040044 -0.055078
vn 1.000000 0.000000 0.000000
v 0.200000 0.039956 -0.055078
vn 1.000000 0.000000 0.000000
v 0.200000 -0.040044 0.072922
vn 1.000000 0.000000 -0.000000
v 0.200000 -0.120044 -0.055078
vn 1.000000 0.000000 -0.000000
v 0.200000 -0.040044 -0.055078
vn 1.000000 0.000000 -0.000000
v 0.160000 0.159956 0.072922
vn 0.694802 0.694804 0.185736
v 0.178614 0.107124 0.200922
vn 0.694802 0.694804 0.185736
v 0.200000 0.119956 0.072922
vn 0.694802 0.694804 0.185736
v 0.178614 0.107124 0.200922
vn 0.986329 0.000000 0.164791
v 0.200000 0.039956 0.072922
vn 0.986329 0.000000 0.164791
v 0.200000 0.119956 0.072922
vn 0.986329 0.000000 0.164791
v 0.178614 0.035679 0.200922
vn 0.986329 -0.000000 0.164792
v 0.200000 -0.040044 0.072922
vn 0.986329 -0.000000 0.164792
v 0.200000 0.039956 0.072922
vn 0.986329 -0.000000 0.164792
v 0.200000 -0.040044 0.072922
vn 0.986328 -0.000000 0.164792
v 0.178614 -0.107213 0.200922
vn 0.986328 -0.000000 0.164792
v 0.200000 -0.120044 0.072922
vn 0.986328 -0.000000 0.164792
v 0.142891 0.142847 0.200922
vn 0.595483 0.595482 0.539260
v 0.106168 0.063656 0.328922
vn 0.595483 0.595482 0.539260
v 0.178614 0.107124 0.200922
vn 0.595483 0.595482 0.539260
v 0.106168 0.063656 0.328922
vn 0.870275 -0.000001 0.492567
v 0.178614 0.035679 0.200922
vn 0.870275 -0.000001 0.492567
v 0.178614 0.107124 0.200922
vn 0.870275 -0.000001 0.492567
v 0.106168 0.021189 0.328922
vn 0.870275 -0.000000 0.492567
v 0.178614 -0.035767 0.200922
vn 0.870275 -0.000000 0.492567
v 0.178614 0.035679 0.200922
vn 0.870275 -0.000000 0.492567
v 0.178614 -0.035767 0.200922
vn 0.870275 0.000000 0.492567
v 0.106168 -0.063744 0.328922
vn 0.870275 0.000000 0.492567
v 0.178614 -0.107213 0.200922
vn 0.870275 0.000000 0.492567
v 0.095774 0.159580 -0.268407
vn 0.670484 0.664278 -0.330432
v 0.148675 0.148631 -0.183078
vn 0.670484 0.664278 -0.330432
v 0.127699 0.127655 -0.267807
vn 0.670484 0.664278 -0.330432
v 0.111506 0.185800 -0.183078
vn 0.701637 0.701634 -0.124159
v 0.160000 0.159956 -0.055078
vn 0.701637 0.701634 -0.124159
v 0.148675 0.148631 -0.183078
vn 0.701637 0.701634 -0.124159
v 0.120000 0.199956 0.072922
vn 0.707106 0.707108 -0.000000
v 0.160000 0.159956 -0.055078
vn 0.707106 0.707108 -0.000000
v 0.120000 0.199956 -0.055078
vn 0.707106 0.707108 -0.000000
v 0.107169 0.178570 0.200922
vn 0.694804 0.694802 0.185736
v 0.160000 0.159956 0.072922
vn 0.694804 0.694802 0.185736
v 0.120000 0.199956 0.072922
vn 0.694804 0.694802 0.185736
v -0.148675 0.148631 -0.183078
vn -0.670484 0.664279 -0.330432
v -0.095774 0.159580 -0.268407
vn -0.670484 0.664279 -0.330432
v -0.127699 0.127655 -0.267807
vn -0.670484 0.664279 -0.330432
v -0.095774 0.159580 -0.268407
vn 0.000000 0.955891 -0.293722
v -0.037169 0.185800 -0.183078
vn 0.000000 0.955891 -0.293722
v -0.031925 0.159580 -0.268407
vn 0.000000 0.955891 -0.293722
v -0.031925 0.159580 -0.268407
vn 0.000000 0.955891 -0.293722
v 0.037169 0.185800 -0.183078
vn 0.000000 0.955891 -0.293722
v 0.031925 0.159580 -0.268407
vn 0.000000 0.955891 -0.293722
v 0.037169 0.185800 -0.183078
vn 0.000000 0.955891 -0.293722
v 0.095774 0.159580 -0.268407
vn 0.000000 0.955891 -0.293722
v 0.031925 0.159580 -0.268407
vn 0.000000 0.955891 -0.293722
v -0.160000 0.159956 -0.055078
vn -0.701637 0.701634 -0.124159
v -0.111506 0.185800 -0.183078
vn -0.701637 0.701634 -0.124159
v -0.148675 0.148631 -0.183078
vn -0.701637 0.701634 -0.124159
v -0.111506 0.185800 -0.183078
vn 0.000000 0.993940 -0.109926
v -0.040000 0.199956 -0.055078
vn 0.000000 0.993940 -0.109926
v -0.037169 0.185800 -0.183078
vn 0.000000 0.993940 -0.109926
v -0.040000 0.199956 -0.055078
vn 0.000000 0.993940 -0.109926
v 0.037169 0.185800 -0.183078
vn 0.000000 0.993940 -0.109926
v -0.037169 0.185800 -0.183078
vn 0.000000 0.993940 -0.109926
v 0.040000 0.199956 -0.055078
vn 0.000000 0.993940 -0.109926
v 0.111506 0.185800 -0.183078
vn 0.000000 0.993940 -0.109926
v 0.037169 0.185800 -0.183078
vn 0.000000 0.993940 -0.109926
v -0.160000 0.159956 0.072922
vn -0.707106 0.707108 0.000000
v -0.120000 0.199956 -0.055078
vn -0.707106 0.707108 0.000000
v -0.160000 0.159956 -0.055078
vn -0.707106 0.707108 0.000000
v -0.120000 0.199956 0.072922
vn 0.000000 1.000000 -0.000000
v -0.040000 0.199956 -0.055078
vn 0.000000 1.000000 -0.000000
v -0.120000 0.199956 -0.055078
vn 0.000000 1.000000 -0.000000
v -0.040000 0.199956 0.072922
vn 0.000000 1.000000 -0.000000
v 0.040000 0.199956 -0.055078
vn 0.000000 1.000000 -0.000000
v -0.040000 0.199956 -0.055078
vn 0.000000 1.000000 -0.000000
v 0.040000 0.199956 0.072922
vn 0.000000 1.000000 -0.000000
v 0.120000 0.199956 -0.055078
vn 0.000000 1.000000 -0.000000
v 0.040000 0.199956 -0.055078
vn 0.000000 1.000000 -0.000000
v -0.160000 0.159956 0.072922
vn -0.694803 0.694802 0.185736
v -0.107169 0.178570 0.200922
vn -0.694803 0.694802 0.185736
v -0.120000 0.199956 0.072922
vn -0.694803 0.694802 0.185736
v -0.107169 0.178570 0.200922
vn 0.000000 0.986328 0.164792
v -0.040000 0.199956 0.072922
vn 0.000000 0.986328 0.164792
v -0.120000 0.199956 0.072922
vn 0.000000 0.986328 0.164792
v -0.035723 0.178570 0.200922
vn 0.000000 0.986328 0.164792
v 0.040000 0.199956 0.072922
vn 0.000000 0.986328 0.164792
v -0.040000 0.199956 0.072922
vn 0.000000 0.986328 0.164792
v 0.040000 0.199956 0.072922
vn 0.000000 0.986328 0.164792
v 0.107169 0.178570 0.200922
vn 0.000000 0.986328 0.164792
v 0.120000 0.199956 0.072922
vn 0.000000 0.986328 0.164792
v -0.142892 0.142847 0.200922
vn -0.595482 0.595483 0.539260
v -0.063701 0.106123 0.328922
vn -0.595482 0.595483 0.539260
v -0.107169 0.178570 0.200922
vn -0.595482 0.595483 0.539260
v -0.063701 0.106123 0.328922
vn 0.000000 0.870275 0.492567
v -0.035723 0.178570 0.200922
vn 0.000000 0.870275 0.492567
v -0.107169 0.178570 0.200922
vn 0.000000 0.870275 0.492567
v -0.035723 0.178570 0.200922
vn 0.000000 0.870275 0.492567
v 0.021233 0.106123 0.328922
vn 0.000000 0.870275 0.492567
v 0.035723 0.178570 0.200922
vn 0.000000 0.870275 0.492567
v 0.035723 0.178570 0.200922
vn 0.000000 0.870275 0.492567
v 0.063700 0.106123 0.328922
vn 0.000000 0.870275 0.492567
v 0.107169 0.178570 0.200922
vn 0.000000 0.870275 0.492567
v -0.159624 0.095730 -0.267807
vn -0.667388 0.667388 -0.330435
v -0.148675 0.148631 -0.183078
vn -0.667388 0.667388 -0.330435
v -0.127699 0.127655 -0.267807
vn -0.667388 0.667388 -0.330435
v -0.185843 0.111462 -0.183078
vn -0.701635 0.701635 -0.124159
v -0.160000 0.159956 -0.055078
vn -0.701635 0.701635 -0.124159
v -0.148675 0.148631 -0.183078
vn -0.701635 0.701635 -0.124159
v -0.200000 0.119956 0.072922
vn -0.707106 0.707108 0.000000
v -0.160000 0.159956 -0.055078
vn -0.707106 0.707108 0.000000
v -0.200000 0.119956 -0.055078
vn -0.707106 0.707108 0.000000
v -0.178614 0.107124 0.200922
vn -0.694802 0.694804 0.185736
v -0.160000 0.159956 0.072922
vn -0.694802 0.694804 0.185736
v -0.200000 0.119956 0.072922
vn -0.694802 0.694804 0.185736
v -0.148675 -0.148718 -0.183078
vn -0.667388 -0.667388 -0.330435
v -0.159624 -0.095818 -0.267808
vn -0.667388 -0.667388 -0.330435
v -0.127699 -0.127743 -0.267808
vn -0.667388 -0.667388 -0.330435
v -0.159624 -0.095818 -0.267808
vn -0.955306 0.000000 -0.295618
v -0.185843 -0.037212 -0.183078
vn -0.955306 0.000000 -0.295618
v -0.159624 -0.031968 -0.267808
vn -0.955306 0.000000 -0.295618
v -0.185843 -0.037212 -0.183078
vn -0.955306 0.000000 -0.295618
v -0.159624 0.031881 -0.267808
vn -0.955306 0.000000 -0.295618
v -0.159624 -0.031968 -0.267808
vn -0.955306 0.000000 -0.295618
v -0.185843 0.037125 -0.183078
vn -0.955306 0.000001 -0.295618
v -0.159624 0.095730 -0.267807
vn -0.955306 0.000001 -0.295618
v -0.159624 0.031881 -0.267808
vn -0.955306 0.000001 -0.295618
v -0.160000 -0.160044 -0.055078
vn -0.701635 -0.701636 -0.124160
v -0.185843 -0.111550 -0.183078
vn -0.701635 -0.701636 -0.124160
v -0.148675 -0.148718 -0.183078
vn -0.701635 -0.701636 -0.124160
v -0.185843 -0.111550 -0.183078
vn -0.993940 0.000000 -0.109928
v -0.200000 -0.040044 -0.055078
vn -0.993940 0.000000 -0.109928
v -0.185843 -0.037212 -0.183078
vn -0.993940 0.000000 -0.109928
v -0.200000 -0.040044 -0.055078
vn -0.993940 0.000000 -0.109928
v -0.185843 0.037125 -0.183078
vn -0.993940 0.000000 -0.109928
v -0.185843 -0.037212 -0.183078
vn -0.993940 0.000000 -0.109928
v -0.200000 0.039956 -0.055078
vn -0.993939 0.000000 -0.109928
v -0.185843 0.111462 -0.183078
vn -0.993939 0.000000 -0.109928
v -0.185843 0.037125 -0.183078
vn -0.993939 0.000000 -0.109928
v -0.160000 -0.160044 0.072921
vn -0.707106 -0.707108 -0.000000
v -0.200000 -0.120044 -0.055078
vn -0.707106 -0.707108 -0.000000
v -0.160000 -0.160044 -0.055078
vn -0.707106 -0.707108 -0.000000
v -0.200000 -0.120044 0.072922
vn -1.000000 0.000000 -0.000000
v -0.200000 -0.040044 -0.055078
vn -1.000000 0.000000 -0.000000
v -0.200000 -0.120044 -0.055078
vn -1.000000 0.000000 -0.000000
v -0.200000 -0.040044 0.072922
vn -1.000000 0.000000 0.000000
v -0.200000 0.039956 -0.055078
vn -1.000000 0.000000 0.000000
v -0.200000 -0.040044 -0.055078
vn -1.000000 0.000000 0.000000
v -0.200000 0.039956 0.072922
vn -1.000000 0.000000 0.000000
v -0.200000 0.119956 -0.055078
vn -1.000000 0.000000 0.000000
v -0.200000 0.039956 -0.055078
vn -1.000000 0.000000 0.000000
v -0.160000 -0.160044 0.072921
vn -0.694803 -0.694803 0.185734
v -0.178614 -0.107213 0.200922
vn -0.694803 -0.694803 0.185734
v -0.200000 -0.120044 0.072922
vn -0.694803 -0.694803 0.185734
v -0.178614 -0.107213 0.200922
vn -0.986328 -0.000000 0.164792
v -0.200000 -0.040044 0.072922
vn -0.986328 -0.000000 0.164792
v -0.200000 -0.120044 0.072922
vn -0.986328 -0.000000 0.164792
v -0.178614 -0.035767 0.200922
vn -0.986328 -0.000000 0.164792
v -0.200000 0.039956 0.072922
vn -0.986328 -0.000000 0.164792
v -0.200000 -0.040044 0.072922
vn -0.986328 -0.000000 0.164792
v -0.200000 0.039956 0.072922
vn -0.986329 0.000000 0.164791
v -0.178614 0.107124 0.200922
vn -0.986329 0.000000 0.164791
v -0.200000 0.119956 0.072922
vn -0.986329 0.000000 0.164791
v -0.142892 -0.142935 0.200922
vn -0.595483 -0.595483 0.539260
v -0.106168 -0.063744 0.328922
vn -0.595483 -0.595483 0.539260
v -0.178614 -0.107213 0.200922
vn -0.595483 -0.595483 0.539260
v -0.106168 -0.063744 0.328922
vn -0.870275 0.000000 0.492567
v -0.178614 -0.035767 0.200922
vn -0.870275 0.000000 0.492567
v -0.178614 -0.107213 0.200922
vn -0.870275 0.000000 0.492567
v -0.106168 -0.021277 0.328922
vn -0.870275 -0.000000 0.492567
v -0.178614 0.035679 0.200922
vn -0.870275 -0.000000 0.492567
v -0.178614 -0.035767 0.200922
vn -0.870275 -0.000000 0.492567
v -0.178614 0.035679 0.200922
vn -0.870275 -0.000001 0.492567
v -0.106168 0.063656 0.328922
vn -0.870275 -0.000001 0.492567
v -0.178614 0.107124 0.200922
vn -0.870275 -0.000001 0.492567
v -0.106168 0.063656 0.328922
vn -0.595482 0.595483 0.539260
v -0.084934 0.084890 0.328922
vn -0.595482 0.595483 0.539260
v -0.142892 0.142847 0.200922
vn -0.595482 0.595483 0.539260
v 0.063700 0.106123 0.328922
vn 0.595482 0.595483 0.539260
v 0.084934 0.084890 0.328922
vn 0.595482 0.595483 0.539260
v 0.142891 0.142847 0.200922
vn 0.595482 0.595483 0.539260
v 0.106168 -0.063744 0.328922
vn 0.595482 -0.595483 0.539260
v 0.084934 -0.084978 0.328922
vn 0.595482 -0.595483 0.539260
v 0.142891 -0.142935 0.200922
vn 0.595482 -0.595483 0.539260
v -0.063701 -0.106212 0.328922
vn -0.595483 -0.595482 0.539260
v -0.084934 -0.084978 0.328922
vn -0.595483 -0.595482 0.539260
v -0.142892 -0.142935 0.200922
vn -0.595483 -0.595482 0.539260
v 0.095774 -0.095818 -0.307713
vn 0.468293 -0.468292 -0.749269
v 0.159624 -0.095818 -0.267808
vn 0.468293 -0.468292 -0.749269
v 0.127699 -0.127743 -0.267808
vn 0.468293 -0.468292 -0.749269
v -0.063701 -0.063744 0.328922
vn 0.000000 -0.000001 1.000000
v -0.106168 -0.063744 0.328922
vn 0.000000 -0.000001 1.000000
v -0.084934 -0.084978 0.328922
vn 0.000000 -0.000001 1.000000
v 0.084934 -0.084978 0.328922
vn 0.000000 0.000000 1.000000
v 0.084934 0.084890 0.328922
vn 0.000000 0.000000 1.000000
v 0.063700 0.063656 0.328922
vn 0.000000 -0.000001 1.000000
v 0.063700 0.021189 0.328922
vn 0.000000 -0.000001 1.000000
v 0.106168 0.021189 0.328922
vn 0.000000 -0.000001 1.000000
v 0.106168 -0.063744 0.328922
vn 0.000000 0.000000 1.000000
v 0.021233 0.063656 0.328922
vn 0.000000 -0.000002 1.000000
v 0.021233 0.021189 0.328922
vn 0.000000 -0.000002 1.000000
v 0.063700 0.021189 0.328922
vn 0.000000 -0.000002 1.000000
v -0.021233 0.063656 0.328922
vn 0.000000 -0.000002 1.000000
v -0.021233 0.021189 0.328922
vn 0.000000 -0.000002 1.000000
v 0.021233 0.021189 0.328922
vn 0.000000 -0.000002 1.000000
v -0.063701 0.063656 0.328922
vn 0.000000 -0.000002 1.000000
v -0.063701 0.021189 0.328922
vn 0.000000 -0.000002 1.000000
v -0.021233 0.021189 0.328922
vn 0.000000 -0.000002 1.000000
v -0.106168 0.063656 0.328922
vn 0.000000 -0.000001 1.000000
v -0.106168 0.021189 0.328922
vn 0.000000 -0.000001 1.000000
v -0.063701 0.021189 0.328922
vn 0.000000 -0.000001 1.000000
v -0.106168 -0.021277 0.328922
vn 0.000000 0.000000 1.000000
v -0.106168 -0.063744 0.328922
vn 0.000000 0.000000 1.000000
v -0.095774 -0.095818 -0.307713
vn -0.457601 -0.478878 -0.749185
v -0.095774 -0.159668 -0.266901
vn -0.457601 -0.478878 -0.749185
v -0.127699 -0.127743 -0.267808
vn -0.457601 -0.478878 -0.749185
v -0.031925 -0.159668 -0.266901
vn 0.000000 -0.538574 -0.842578
v 0.031925 -0.095818 -0.307713
vn 0.000000 -0.538574 -0.842578
v 0.031925 -0.159668 -0.266901
vn 0.000000 -0.538574 -0.842578
v -0.031925 -0.159668 -0.266901
vn 0.000000 -0.538574 -0.842578
v 0.095774 -0.159668 -0.266901
vn 0.000000 -0.538574 -0.842578
v -0.127699 0.127655 -0.267807
vn -0.475305 0.461235 -0.749231
v -0.095774 0.159580 -0.268407
vn -0.475305 0.461235 -0.749231
v -0.095774 0.095730 -0.307713
vn -0.475305 0.461235 -0.749231
v -0.095774 0.095730 -0.307713
vn -0.529998 0.000002 -0.847999
v -0.095774 0.031881 -0.307713
vn -0.529998 0.000002 -0.847999
v -0.159624 0.031881 -0.267808
vn -0.529998 0.000002 -0.847999
v -0.095774 0.031881 -0.307713
vn -0.529998 0.000000 -0.847999
v -0.095774 -0.031969 -0.307713
vn -0.529998 0.000000 -0.847999
v -0.159624 -0.031968 -0.267808
vn -0.529998 0.000000 -0.847999
v -0.095774 -0.031969 -0.307713
vn -0.529998 0.000002 -0.847999
v -0.095774 -0.095818 -0.307713
vn -0.529998 0.000002 -0.847999
v -0.159624 -0.095818 -0.267808
vn -0.529998 0.000002 -0.847999
v -0.031925 0.159580 -0.268407
vn 0.000000 0.524238 -0.851572
v -0.031925 0.095730 -0.307713
vn 0.000000 0.524238 -0.851572
v -0.095774 0.095730 -0.307713
vn 0.000000 0.524238 -0.851572
v -0.031925 0.095730 -0.307713
vn 0.000000 0.000002 -1.000000
v -0.031925 0.031881 -0.307713
vn 0.000000 0.000002 -1.000000
v -0.095774 0.031881 -0.307713
vn 0.000000 0.000002 -1.000000
v -0.031925 -0.031969 -0.307713
vn 0.000000 0.000001 -1.000000
v -0.031925 -0.095818 -0.307713
vn 0.000000 0.000001 -1.000000
v -0.095774 -0.095818 -0.307713
vn 0.000000 0.000001 -1.000000
v 0.031925 0.095730 -0.307713
vn 0.000000 0.524238 -0.851572
v 0.031925 0.095730 -0.307713
vn 0.000000 0.000002 -1.000000
v 0.031925 0.031881 -0.307713
vn 0.000000 0.000002 -1.000000
v -0.031925 0.031881 -0.307713
vn 0.000000 0.000002 -1.000000
v 0.031925 -0.031969 -0.307713
vn 0.000000 0.000001 -1.000000
v 0.031925 -0.095818 -0.307713
vn 0.000000 0.000001 -1.000000
v -0.031925 -0.095818 -0.307713
vn 0.000000 0.000001 -1.000000
v 0.095774 0.159580 -0.268407
vn 0.000000 0.524238 -0.851572
v 0.095774 0.095730 -0.307713
vn 0.000000 0.524238 -0.851572
v 0.031925 0.095730 -0.307713
vn 0.000000 0.524238 -0.851572
v 0.095774 0.095730 -0.307713
vn 0.000000 0.000002 -1.000000
v 0.095774 0.031881 -0.307713
vn 0.000000 0.000002 -1.000000
v 0.031925 0.031881 -0.307713
vn 0.000000 0.000002 -1.000000
v 0.095774 -0.031969 -0.307713
vn 0.000000 0.000001 -1.000000
v 0.095774 -0.095818 -0.307713
vn 0.000000 0.000001 -1.000000
v 0.031925 -0.095818 -0.307713
vn 0.000000 0.000001 -1.000000
v 0.127699 0.127655 -0.267807
vn 0.468293 0.468294 -0.749268
v 0.159624 0.095730 -0.267807
vn 0.468293 0.468294 -0.749268
v 0.095774 0.095730 -0.307713
vn 0.468293 0.468294 -0.749268
v 0.159624 0.095730 -0.267807
vn 0.529998 0.000003 -0.847999
v 0.159624 0.031881 -0.267808
vn 0.529998 0.000003 -0.847999
v 0.095774 0.031881 -0.307713
vn 0.529998 0.000003 -0.847999
v 0.159624 0.031881 -0.267808
vn 0.529998 0.000000 -0.847999
v 0.159624 -0.031968 -0.267808
vn 0.529998 0.000000 -0.847999
v 0.095774 -0.031969 -0.307713
vn 0.529998 0.000000 -0.847999
v 0.159624 -0.031968 -0.267808
vn 0.529998 0.000002 -0.847999
v 0.159624 -0.095818 -0.267808
vn 0.529998 0.000002 -0.847999
v 0.095774 -0.095818 -0.307713
vn 0.529998 0.000002 -0.847999
v -0.095774 -0.159668 -0.266901
vn -0.666598 -0.666595 -0.333614
v -0.111506 -0.185887 -0.183078
vn -0.666598 -0.666595 -0.333614
v -0.148675 -0.148718 -0.183078
vn -0.666598 -0.666595 -0.333614
v -0.111506 -0.185887 -0.183078
vn -0.701637 -0.701634 -0.124160
v -0.120000 -0.200044 -0.055078
vn -0.701637 -0.701634 -0.124160
v -0.160000 -0.160044 -0.055078
vn -0.701637 -0.701634 -0.124160
v -0.120000 -0.200044 0.072921
vn -0.707108 -0.707106 -0.000000
v -0.160000 -0.160044 0.072921
vn -0.707108 -0.707106 -0.000000
v -0.160000 -0.160044 -0.055078
vn -0.707108 -0.707106 -0.000000
v -0.107169 -0.178658 0.200922
vn -0.694802 -0.694804 0.185734
v -0.142892 -0.142935 0.200922
vn -0.694802 -0.694804 0.185734
v -0.160000 -0.160044 0.072921
vn -0.694802 -0.694804 0.185734
v 0.148675 -0.148718 -0.183078
vn 0.666598 -0.666595 -0.333614
v 0.111506 -0.185887 -0.183078
vn 0.666598 -0.666595 -0.333614
v 0.095774 -0.159668 -0.266901
vn 0.666598 -0.666595 -0.333614
v 0.095774 -0.159668 -0.266901
vn 0.000000 -0.954400 -0.298532
v 0.111506 -0.185887 -0.183078
vn 0.000000 -0.954400 -0.298532
v 0.037169 -0.185887 -0.183078
vn 0.000000 -0.954400 -0.298532
v 0.037169 -0.185887 -0.183078
vn 0.000000 -0.954400 -0.298531
v -0.037169 -0.185887 -0.183078
vn 0.000000 -0.954400 -0.298531
v -0.031925 -0.159668 -0.266901
vn 0.000000 -0.954400 -0.298531
v -0.037169 -0.185887 -0.183078
vn 0.000000 -0.954400 -0.298532
v -0.111506 -0.185887 -0.183078
vn 0.000000 -0.954400 -0.298532
v -0.095774 -0.159668 -0.266901
vn 0.000000 -0.954400 -0.298532
v 0.160000 -0.160044 -0.055078
vn 0.701637 -0.701634 -0.124160
v 0.120000 -0.200044 -0.055078
vn 0.701637 -0.701634 -0.124160
v 0.111506 -0.185887 -0.183078
vn 0.701637 -0.701634 -0.124160
v 0.111506 -0.185887 -0.183078
vn 0.000000 -0.993939 -0.109929
v 0.120000 -0.200044 -0.055078
vn 0.000000 -0.993939 -0.109929
v 0.040000 -0.200044 -0.055078
vn 0.000000 -0.993939 -0.109929
v 0.037169 -0.185887 -0.183078
vn 0.000000 -0.993939 -0.109929
v 0.040000 -0.200044 -0.055078
vn 0.000000 -0.993939 -0.109929
v -0.040000 -0.200044 -0.055078
vn 0.000000 -0.993939 -0.109929
v -0.040000 -0.200044 -0.055078
vn 0.000000 -0.993939 -0.109929
v -0.120000 -0.200044 -0.055078
vn 0.000000 -0.993939 -0.109929
v -0.111506 -0.185887 -0.183078
vn 0.000000 -0.993939 -0.109929
v 0.160000 -0.160044 0.072921
vn 0.707108 -0.707106 -0.000000
v 0.120000 -0.200044 0.072921
vn 0.707108 -0.707106 -0.000000
v 0.120000 -0.200044 -0.055078
vn 0.707108 -0.707106 -0.000000
v 0.120000 -0.200044 0.072921
vn 0.000000 -1.000000 -0.000000
v 0.040000 -0.200044 0.072921
vn 0.000000 -1.000000 -0.000000
v 0.040000 -0.200044 -0.055078
vn 0.000000 -1.000000 -0.000000
v -0.040000 -0.200044 0.072921
vn 0.000000 -1.000000 -0.000000
v -0.120000 -0.200044 0.072921
vn 0.000000 -1.000000 -0.000000
v -0.120000 -0.200044 -0.055078
vn 0.000000 -1.000000 -0.000000
v 0.160000 -0.160044 0.072921
vn 0.694803 -0.694803 0.185735
v 0.142891 -0.142935 0.200922
vn 0.694803 -0.694803 0.185735
v 0.107169 -0.178658 0.200922
vn 0.694803 -0.694803 0.185735
v 0.107169 -0.178658 0.200922
vn 0.000000 -0.986329 0.164792
v 0.035723 -0.178658 0.200922
vn 0.000000 -0.986329 0.164792
v 0.040000 -0.200044 0.072921
vn 0.000000 -0.986329 0.164792
v 0.035723 -0.178658 0.200922
vn 0.000000 -0.986328 0.164792
v -0.035723 -0.178658 0.200922
vn 0.000000 -0.986328 0.164792
v -0.040000 -0.200044 0.072921
vn 0.000000 -0.986328 0.164792
v -0.040000 -0.200044 0.072921
vn 0.000000 -0.986329 0.164792
v -0.035723 -0.178658 0.200922
vn 0.000000 -0.986329 0.164792
v -0.107169 -0.178658 0.200922
vn 0.000000 -0.986329 0.164792
v 0.142891 -0.142935 0.200922
vn 0.595482 -0.595483 0.539260
v 0.084934 -0.084978 0.328922
vn 0.595482 -0.595483 0.539260
v 0.063700 -0.106212 0.328922
vn 0.595482 -0.595483 0.539260
v 0.021233 -0.106212 0.328922
vn 0.000000 -0.870275 0.492566
v 0.021233 -0.106212 0.328922
vn 0.000000 -0.870275 0.492566
v -0.021233 -0.106212 0.328922
vn 0.000000 -0.870275 0.492566
v -0.021233 -0.106212 0.328922
vn 0.000000 -0.870275 0.492566
v -0.063701 -0.106212 0.328922
vn 0.000000 -0.870275 0.492566
v 0.159624 -0.095818 -0.267808
vn 0.667387 -0.667388 -0.330435
v 0.185843 -0.111550 -0.183078
vn 0.667387 -0.667388 -0.330435
v 0.148675 -0.148718 -0.183078
vn 0.667387 -0.667388 -0.330435
v 0.185843 -0.111550 -0.183078
vn 0.701634 -0.701636 -0.124160
v 0.200000 -0.120044 -0.055078
vn 0.701634 -0.701636 -0.124160
v 0.160000 -0.160044 -0.055078
vn 0.701634 -0.701636 -0.124160
v 0.200000 -0.120044 0.072922
vn 0.707107 -0.707107 -0.000000
v 0.160000 -0.160044 0.072921
vn 0.707107 -0.707107 -0.000000
v 0.160000 -0.160044 -0.055078
vn 0.707107 -0.707107 -0.000000
v 0.178614 -0.107213 0.200922
vn 0.694802 -0.694805 0.185735
v 0.142891 -0.142935 0.200922
vn 0.694802 -0.694805 0.185735
v 0.160000 -0.160044 0.072921
vn 0.694802 -0.694805 0.185735
v 0.148675 0.148631 -0.183078
vn 0.667388 0.667388 -0.330435
v 0.185843 0.111462 -0.183078
vn 0.667388 0.667388 -0.330435
v 0.159624 0.095730 -0.267807
vn 0.667388 0.667388 -0.330435
v 0.159624 0.095730 -0.267807
vn 0.955306 0.000000 -0.295618
v 0.185843 0.111462 -0.183078
vn 0.955306 0.000000 -0.295618
v 0.185843 0.037125 -0.183078
vn 0.955306 0.000000 -0.295618
v 0.159624 0.031881 -0.267808
vn 0.955306 0.000001 -0.295618
v 0.185843 0.037125 -0.183078
vn 0.955306 0.000001 -0.295618
v 0.185843 -0.037212 -0.183078
vn 0.955306 0.000001 -0.295618
v 0.185843 -0.037212 -0.183078
vn 0.955306 0.000000 -0.295618
v 0.185843 -0.111550 -0.183078
vn 0.955306 0.000000 -0.295618
v 0.159624 -0.095818 -0.267808
vn 0.955306 0.000000 -0.295618
v 0.160000 0.159956 -0.055078
vn 0.701634 0.701636 -0.124160
v 0.200000 0.119956 -0.055078
vn 0.701634 0.701636 -0.124160
v 0.185843 0.111462 -0.183078
vn 0.701634 0.701636 -0.124160
v 0.185843 0.111462 -0.183078
vn 0.993940 0.000000 -0.109928
v 0.200000 0.119956 -0.055078
vn 0.993940 0.000000 -0.109928
v 0.200000 0.039956 -0.055078
vn 0.993940 0.000000 -0.109928
v 0.185843 0.037125 -0.183078
vn 0.993939 0.000000 -0.109928
v 0.200000 0.039956 -0.055078
vn 0.993939 0.000000 -0.109928
v 0.200000 -0.040044 -0.055078
vn 0.993939 0.000000 -0.109928
v 0.200000 -0.040044 -0.055078
vn 0.993940 0.000000 -0.109928
v 0.200000 -0.120044 -0.055078
vn 0.993940 0.000000 -0.109928
v 0.185843 -0.111550 -0.183078
vn 0.993940 0.000000 -0.109928
v 0.160000 0.159956 0.072922
vn 0.707106 0.707108 0.000000
v 0.200000 0.119956 0.072922
vn 0.707106 0.707108 0.000000
v 0.200000 0.119956 -0.055078
vn 0.707106 0.707108 0.000000
v 0.200000 0.119956 0.072922
vn 1.000000 0.000000 -0.000000
v 0.200000 0.039956 0.072922
vn 1.000000 0.000000 -0.000000
v 0.200000 0.039956 -0.055078
vn 1.000000 0.000000 -0.000000
v 0.200000 0.039956 0.072922
vn 1.000000 0.000000 -0.000000
v 0.200000 -0.040044 0.072922
vn 1.000000 0.000000 -0.000000
v 0.200000 -0.040044 -0.055078
vn 1.000000 0.000000 -0.000000
v 0.200000 -0.040044 0.072922
vn 1.000000 0.000000 0.000000
v 0.200000 -0.120044 0.072922
vn 1.000000 0.000000 0.000000
v 0.200000 -0.120044 -0.055078
vn 1.000000 0.000000 0.000000
v 0.160000 0.159956 0.072922
vn 0.694803 0.694803 0.185736
v 0.142891 0.142847 0.200922
vn 0.694803 0.694803 0.185736
v 0.178614 0.107124 0.200922
vn 0.694803 0.694803 0.185736
v 0.178614 0.107124 0.200922
vn 0.986328 -0.000000 0.164792
v 0.178614 0.035679 0.200922
vn 0.986328 -0.000000 0.164792
v 0.200000 0.039956 0.072922
vn 0.986328 -0.000000 0.164792
v 0.178614 0.035679 0.200922
vn 0.986328 -0.000000 0.164792
v 0.178614 -0.035767 0.200922
vn 0.986328 -0.000000 0.164792
v 0.200000 -0.040044 0.072922
vn 0.986328 -0.000000 0.164792
v 0.200000 -0.040044 0.072922
vn 0.986328 0.000000 0.164792
v 0.178614 -0.035767 0.200922
vn 0.986328 0.000000 0.164792
v 0.178614 -0.107213 0.200922
vn 0.986328 0.000000 0.164792
v 0.142891 0.142847 0.200922
vn 0.595482 0.595483 0.539260
v 0.084934 0.084890 0.328922
vn 0.595482 0.595483 0.539260
v 0.106168 0.063656 0.328922
vn 0.595482 0.595483 0.539260
v 0.106168 0.063656 0.328922
vn 0.870275 0.000000 0.492567
v 0.106168 0.021189 0.328922
vn 0.870275 0.000000 0.492567
v 0.178614 0.035679 0.200922
vn 0.870275 0.000000 0.492567
v 0.106168 0.021189 0.328922
vn 0.870275 0.000000 0.492567
v 0.106168 -0.021277 0.328922
vn 0.870275 0.000000 0.492567
v 0.178614 -0.035767 0.200922
vn 0.870275 0.000000 0.492567
v 0.178614 -0.035767 0.200922
vn 0.870275 -0.000001 0.492567
v 0.106168 -0.021277 0.328922
vn 0.870275 -0.000001 0.492567
v 0.106168 -0.063744 0.328922
vn 0.870275 -0.000001 0.492567
v 0.095774 0.159580 -0.268407
vn 0.667900 0.667897 -0.328366
v 0.111506 0.185800 -0.183078
vn 0.667900 0.667897 -0.328366
v 0.148675 0.148631 -0.183078
vn 0.667900 0.667897 -0.328366
v 0.111506 0.185800 -0.183078
vn 0.701635 0.701636 -0.124158
v 0.120000 0.199956 -0.055078
vn 0.701635 0.701636 -0.124158
v 0.160000 0.159956 -0.055078
vn 0.701635 0.701636 -0.124158
v 0.120000 0.199956 0.072922
vn 0.707107 0.707106 0.000000
v 0.160000 0.159956 0.072922
vn 0.707107 0.707106 0.000000
v 0.160000 0.159956 -0.055078
vn 0.707107 0.707106 0.000000
v 0.107169 0.178570 0.200922
vn 0.694803 0.694803 0.185736
v 0.142891 0.142847 0.200922
vn 0.694803 0.694803 0.185736
v 0.160000 0.159956 0.072922
vn 0.694803 0.694803 0.185736
v -0.148675 0.148631 -0.183078
vn -0.667900 0.667897 -0.328366
v -0.111506 0.185800 -0.183078
vn -0.667900 0.667897 -0.328366
v -0.095774 0.159580 -0.268407
vn -0.667900 0.667897 -0.328366
v -0.095774 0.159580 -0.268407
vn 0.000000 0.955891 -0.293722
v -0.111506 0.185800 -0.183078
vn 0.000000 0.955891 -0.293722
v -0.037169 0.185800 -0.183078
vn 0.000000 0.955891 -0.293722
v -0.031925 0.159580 -0.268407
vn 0.000000 0.955891 -0.293722
v -0.037169 0.185800 -0.183078
vn 0.000000 0.955891 -0.293722
v 0.037169 0.185800 -0.183078
vn 0.000000 0.955891 -0.293722
v 0.037169 0.185800 -0.183078
vn 0.000000 0.955891 -0.293722
v 0.111506 0.185800 -0.183078
vn 0.000000 0.955891 -0.293722
v 0.095774 0.159580 -0.268407
vn 0.000000 0.955891 -0.293722
v -0.160000 0.159956 -0.055078
vn -0.701635 0.701636 -0.124158
v -0.120000 0.199956 -0.055078
vn -0.701635 0.701636 -0.124158
v -0.111506 0.185800 -0.183078
vn -0.701635 0.701636 -0.124158
v -0.111506 0.185800 -0.183078
vn 0.000000 0.993940 -0.109926
v -0.120000 0.199956 -0.055078
vn 0.000000 0.993940 -0.109926
v -0.040000 0.199956 -0.055078
vn 0.000000 0.993940 -0.109926
v 0.040000 0.199956 -0.055078
vn 0.000000 0.993940 -0.109926
v 0.037169 0.185800 -0.183078
vn 0.000000 0.993940 -0.109926
v 0.040000 0.199956 -0.055078
vn 0.000000 0.993940 -0.109926
v 0.120000 0.199956 -0.055078
vn 0.000000 0.993940 -0.109926
v 0.111506 0.185800 -0.183078
vn 0.000000 0.993940 -0.109926
v -0.160000 0.159956 0.072922
vn -0.707107 0.707106 -0.000000
v -0.120000 0.199956 0.072922
vn -0.707107 0.707106 -0.000000
v -0.120000 0.199956 -0.055078
vn -0.707107 0.707106 -0.000000
v -0.120000 0.199956 0.072922
vn 0.000000 1.000000 -0.000000
v -0.040000 0.199956 0.072922
vn 0.000000 1.000000 -0.000000
v -0.040000 0.199956 -0.055078
vn 0.000000 1.000000 -0.000000
v -0.040000 0.199956 0.072922
vn 0.000000 1.000000 -0.000000
v 0.040000 0.199956 0.072922
vn 0.000000 1.000000 -0.000000
v 0.040000 0.199956 -0.055078
vn 0.000000 1.000000 -0.000000
v 0.040000 0.199956 0.072922
vn 0.000000 1.000000 -0.000000
v 0.120000 0.199956 0.072922
vn 0.000000 1.000000 -0.000000
v 0.120000 0.199956 -0.055078
vn 0.000000 1.000000 -0.000000
v -0.160000 0.159956 0.072922
vn -0.694802 0.694804 0.185735
v -0.142892 0.142847 0.200922
vn -0.694802 0.694804 0.185735
v -0.107169 0.178570 0.200922
vn -0.694802 0.694804 0.185735
v -0.107169 0.178570 0.200922
vn 0.000000 0.986328 0.164792
v -0.035723 0.178570 0.200922
vn 0.000000 0.986328 0.164792
v -0.040000 0.199956 0.072922
vn 0.000000 0.986328 0.164792
v -0.035723 0.178570 0.200922
vn 0.000000 0.986328 0.164792
v 0.035723 0.178570 0.200922
vn 0.000000 0.986328 0.164792
v 0.040000 0.199956 0.072922
vn 0.000000 0.986328 0.164792
v 0.040000 0.199956 0.072922
vn 0.000000 0.986328 0.164792
v 0.035723 0.178570 0.200922
vn 0.000000 0.986328 0.164792
v 0.107169 0.178570 0.200922
vn 0.000000 0.986328 0.164792
v -0.142892 0.142847 0.200922
vn -0.595483 0.595482 0.539260
v -0.084934 0.084890 0.328922
vn -0.595483 0.595482 0.539260
v -0.063701 0.106123 0.328922
vn -0.595483 0.595482 0.539260
v -0.063701 0.106123 0.328922
vn 0.000000 0.870275 0.492567
v -0.021233 0.106123 0.328922
vn 0.000000 0.870275 0.492567
v -0.035723 0.178570 0.200922
vn 0.000000 0.870275 0.492567
v -0.035723 0.178570 0.200922
vn 0.000000 0.870275 0.492567
v -0.021233 0.106123 0.328922
vn 0.000000 0.870275 0.492567
v 0.021233 0.106123 0.328922
vn 0.000000 0.870275 0.492567
v 0.035723 0.178570 0.200922
vn 0.000000 0.870275 0.492567
v 0.021233 0.106123 0.328922
vn 0.000000 0.870275 0.492567
v 0.063700 0.106123 0.328922
vn 0.000000 0.870275 0.492567
v -0.159624 0.095730 -0.267807
vn -0.667388 0.667388 -0.330435
v -0.185843 0.111462 -0.183078
vn -0.667388 0.667388 -0.330435
v -0.148675 0.148631 -0.183078
vn -0.667388 0.667388 -0.330435
v -0.185843 0.111462 -0.183078
vn -0.701634 0.701636 -0.124160
v -0.200000 0.119956 -0.055078
vn -0.701634 0.701636 -0.124160
v -0.160000 0.159956 -0.055078
vn -0.701634 0.701636 -0.124160
v -0.200000 0.119956 0.072922
vn -0.707106 0.707108 0.000000
v -0.160000 0.159956 0.072922
vn -0.707106 0.707108 0.000000
v -0.160000 0.159956 -0.055078
vn -0.707106 0.707108 0.000000
v -0.178614 0.107124 0.200922
vn -0.694804 0.694802 0.185735
v -0.142892 0.142847 0.200922
vn -0.694804 0.694802 0.185735
v -0.160000 0.159956 0.072922
vn -0.694804 0.694802 0.185735
v -0.148675 -0.148718 -0.183078
vn -0.667387 -0.667389 -0.330435
v -0.185843 -0.111550 -0.183078
vn -0.667387 -0.667389 -0.330435
v -0.159624 -0.095818 -0.267808
vn -0.667387 -0.667389 -0.330435
v -0.159624 -0.095818 -0.267808
vn -0.955306 0.000000 -0.295619
v -0.185843 -0.111550 -0.183078
vn -0.955306 0.000000 -0.295619
v -0.185843 -0.037212 -0.183078
vn -0.955306 0.000000 -0.295619
v -0.185843 -0.037212 -0.183078
vn -0.955306 0.000001 -0.295618
v -0.185843 0.037125 -0.183078
vn -0.955306 0.000001 -0.295618
v -0.159624 0.031881 -0.267808
vn -0.955306 0.000001 -0.295618
v -0.185843 0.037125 -0.183078
vn -0.955306 0.000000 -0.295618
v -0.185843 0.111462 -0.183078
vn -0.955306 0.000000 -0.295618
v -0.159624 0.095730 -0.267807
vn -0.955306 0.000000 -0.295618
v -0.160000 -0.160044 -0.055078
vn -0.701634 -0.701636 -0.124160
v -0.200000 -0.120044 -0.055078
vn -0.701634 -0.701636 -0.124160
v -0.185843 -0.111550 -0.183078
vn -0.701634 -0.701636 -0.124160
v -0.185843 -0.111550 -0.183078
vn -0.993940 0.000000 -0.109928
v -0.200000 -0.120044 -0.055078
vn -0.993940 0.000000 -0.109928
v -0.200000 -0.040044 -0.055078
vn -0.993940 0.000000 -0.109928
v -0.200000 -0.040044 -0.055078
vn -0.993939 0.000000 -0.109928
v -0.200000 0.039956 -0.055078
vn -0.993939 0.000000 -0.109928
v -0.185843 0.037125 -0.183078
vn -0.993939 0.000000 -0.109928
v -0.200000 0.039956 -0.055078
vn -0.993940 0.000000 -0.109928
v -0.200000 0.119956 -0.055078
vn -0.993940 0.000000 -0.109928
v -0.185843 0.111462 -0.183078
vn -0.993940 0.000000 -0.109928
v -0.160000 -0.160044 0.072921
vn -0.707107 -0.707107 0.000000
v -0.200000 -0.120044 0.072922
vn -0.707107 -0.707107 0.000000
v -0.200000 -0.120044 -0.055078
vn -0.707107 -0.707107 0.000000
v -0.200000 -0.120044 0.072922
vn -1.000000 0.000000 -0.000000
v -0.200000 -0.040044 0.072922
vn -1.000000 0.000000 -0.000000
v -0.200000 -0.040044 -0.055078
vn -1.000000 0.000000 -0.000000
v -0.200000 -0.040044 0.072922
vn -1.000000 0.000000 -0.000000
v -0.200000 0.039956 0.072922
vn -1.000000 0.000000 -0.000000
v -0.200000 0.039956 -0.055078
vn -1.000000 0.000000 -0.000000
v -0.200000 0.039956 0.072922
vn -1.000000 0.000000 -0.000000
v -0.200000 0.119956 0.072922
vn -1.000000 0.000000 -0.000000
v -0.200000 0.119956 -0.055078
vn -1.000000 0.000000 -0.000000
v -0.160000 -0.160044 0.072921
vn -0.694803 -0.694804 0.185734
v -0.142892 -0.142935 0.200922
vn -0.694803 -0.694804 0.185734
v -0.178614 -0.107213 0.200922
vn -0.694803 -0.694804 0.185734
v -0.178614 -0.107213 0.200922
vn -0.986328 0.000000 0.164792
v -0.178614 -0.035767 0.200922
vn -0.986328 0.000000 0.164792
v -0.200000 -0.040044 0.072922
vn -0.986328 0.000000 0.164792
v -0.178614 -0.035767 0.200922
vn -0.986329 0.000000 0.164792
v -0.178614 0.035679 0.200922
vn -0.986329 0.000000 0.164792
v -0.200000 0.039956 0.072922
vn -0.986329 0.000000 0.164792
v -0.200000 0.039956 0.072922
vn -0.986328 -0.000000 0.164792
v -0.178614 0.035679 0.200922
vn -0.986328 -0.000000 0.164792
v -0.178614 0.107124 0.200922
vn -0.986328 -0.000000 0.164792
v -0.142892 -0.142935 0.200922
vn -0.595482 -0.595483 0.539260
v -0.084934 -0.084978 0.328922
vn -0.595482 -0.595483 0.539260
v -0.106168 -0.063744 0.328922
vn -0.595482 -0.595483 0.539260
v -0.106168 -0.063744 0.328922
vn -0.870275 -0.000001 0.492567
v -0.106168 -0.021277 0.328922
vn -0.870275 -0.000001 0.492567
v -0.178614 -0.035767 0.200922
vn -0.870275 -0.000001 0.492567
v -0.106168 -0.021277 0.328922
vn -0.870275 0.000000 0.492567
v -0.106168 0.021189 0.328922
vn -0.870275 0.000000 0.492567
v -0.178614 0.035679 0.200922
vn -0.870275 0.000000 0.492567
v -0.178614 0.035679 0.200922
vn -0.870275 0.000000 0.492567
v -0.106168 0.021189 0.328922
vn -0.870275 0.000000 0.492567
v -0.106168 0.063656 0.328922
vn -0.870275 0.000000 0.492567
v -0.226871 0.150000 -0.320000
vn 0.000000 1.000000 0.000030
v 0.144760 0.149997 -0.217153
vn 0.000000 1.000000 0.000030
v 0.225503 0.150000 -0.320000
vn 0.000000 1.000000 0.000030
v 0.317971 0.090000 0.280599
vn 0.999995 0.000000 0.003311
v 0.317971 -0.090000 0.280599
vn 0.999995 0.000000 0.003311
v 0.319016 0.150000 -0.035000
vn 0.999995 0.000000 0.003311
v 0.144760 -0.149997 -0.217153
vn 0.000000 -1.000000 0.000030
v -0.153350 -0.149997 -0.217153
vn 0.000000 -1.000000 0.000030
v -0.226871 -0.150000 -0.320000
vn 0.000000 -1.000000 0.000030
v 0.225503 0.150000 -0.320000
vn 0.000000 0.000001 -1.000000
v -0.226871 -0.150000 -0.320000
vn 0.000000 0.000001 -1.000000
v -0.226871 0.150000 -0.320000
vn 0.000000 0.000001 -1.000000
v -0.319343 -0.090000 0.280599
vn -0.269151 -0.731245 0.626768
v -0.227587 -0.150000 0.250000
vn -0.269151 -0.731245 0.626768
v -0.227590 -0.090000 0.320000
vn -0.269151 -0.731245 0.626768
v 0.317971 -0.090000 0.280599
vn 0.000000 -0.454313 0.890842
v 0.218997 -0.150000 0.250000
vn 0.000000 -0.454313 0.890842
v 0.318045 -0.150000 0.250000
vn 0.000000 -0.454313 0.890842
v -0.153350 0.149997 -0.217153
vn 0.000000 -0.000001 1.000000
v 0.144760 -0.149997 -0.217153
vn 0.000000 -0.000001 1.000000
v 0.144760 0.149997 -0.217153
vn 0.000000 -0.000001 1.000000
v 0.218997 0.150000 0.250000
vn 0.000000 0.454312 0.890843
v 0.317971 0.090000 0.280599
vn 0.000000 0.454312 0.890843
v 0.318045 0.150000 0.250000
vn 0.000000 0.454312 0.890843
v 0.144760 -0.149997 -0.217153
vn -0.855521 -0.000000 0.517768
v 0.215543 0.150003 -0.100197
vn -0.855521 -0.000000 0.517768
v 0.144760 0.149997 -0.217153
vn -0.855521 -0.000000 0.517768
v -0.224133 0.150003 -0.100197
vn 0.999966 0.000000 0.008227
v -0.227590 0.090000 0.320000
vn 0.999966 0.000000 0.008227
v -0.224133 -0.150003 -0.100197
vn 0.999966 0.000000 0.008227
v -0.224133 -0.150003 -0.100197
vn 0.855521 -0.000000 0.517768
v -0.153350 0.149997 -0.217153
vn 0.855521 -0.000000 0.517768
v -0.224133 0.150003 -0.100197
vn 0.855521 -0.000000 0.517768
v 0.215543 0.150003 -0.100197
vn -0.999966 0.000000 0.008227
v 0.215543 -0.150003 -0.100197
vn -0.999966 0.000000 0.008227
v 0.219000 -0.090000 0.320000
vn -0.999966 0.000000 0.008227
v -0.227587 0.150000 0.250000
vn -0.269116 0.731251 0.626776
v -0.319356 0.090000 0.280599
vn -0.269116 0.731251 0.626776
v -0.227590 0.090000 0.320000
vn -0.269116 0.731251 0.626776
v -0.319343 -0.090000 0.280599
vn -0.394536 -0.000029 0.918880
v -0.227590 0.090000 0.320000
vn -0.394536 -0.000029 0.918880
v -0.319356 0.090000 0.280599
vn -0.394536 -0.000029 0.918880
v 0.317971 -0.090000 0.280599
vn 0.369875 -0.000001 0.929082
v 0.219000 0.090000 0.320000
vn 0.369875 -0.000001 0.929082
v 0.219000 -0.090000 0.320000
vn 0.369875 -0.000001 0.929082
v 0.319016 0.150000 -0.035000
vn 0.950160 0.000000 -0.311762
v 0.225503 -0.150000 -0.320000
vn 0.950160 0.000000 -0.311762
v 0.225503 0.150000 -0.320000
vn 0.950160 0.000000 -0.311762
v -0.320385 -0.150000 -0.035000
vn -0.999995 -0.000001 0.003303
v -0.319343 -0.090000 0.280599
vn -0.999995 -0.000001 0.003303
v -0.320386 0.150000 -0.035000
vn -0.999995 -0.000001 0.003303
v -0.226871 0.150000 -0.320000
vn -0.950159 -0.000001 -0.311767
v -0.320385 -0.150000 -0.035000
vn -0.950159 -0.000001 -0.311767
v -0.320386 0.150000 -0.035000
vn -0.950159 -0.000001 -0.311767
v -0.226871 0.150000 -0.320000
vn -0.000040 1.000000 -0.000013
v -0.320386 0.150000 -0.035000
vn -0.000040 1.000000 -0.000013
v -0.224133 0.150003 -0.100197
vn -0.000040 1.000000 -0.000013
v -0.319417 0.150000 0.250000
vn 0.000000 1.000000 0.000001
v -0.227587 0.150000 0.250000
vn 0.000000 1.000000 0.000001
v -0.320386 0.150000 -0.035000
vn 0.000000 1.000000 0.000001
v -0.320386 0.150000 -0.035000
vn -0.000025 1.000000 0.000009
v -0.227587 0.150000 0.250000
vn -0.000025 1.000000 0.000009
v -0.224133 0.150003 -0.100197
vn -0.000025 1.000000 0.000009
v 0.318045 0.150000 0.250000
vn 0.000000 1.000000 0.000001
v 0.319016 0.150000 -0.035000
vn 0.000000 1.000000 0.000001
v 0.218997 0.150000 0.250000
vn 0.000000 1.000000 0.000001
v 0.215543 0.150003 -0.100197
vn 0.000024 1.000000 0.000009
v 0.218997 0.150000 0.250000
vn 0.000024 1.000000 0.000009
v 0.319016 0.150000 -0.035000
vn 0.000024 1.000000 0.000009
v 0.215543 0.150003 -0.100197
vn 0.000036 1.000000 -0.000011
v 0.319016 0.150000 -0.035000
vn 0.000036 1.000000 -0.000011
v 0.225503 0.150000 -0.320000
vn 0.000036 1.000000 -0.000011
v -0.226871 0.150000 -0.320000
vn 0.000062 1.000000 -0.000014
v -0.224133 0.150003 -0.100197
vn 0.000062 1.000000 -0.000014
v -0.153350 0.149997 -0.217153
vn 0.000062 1.000000 -0.000014
v 0.144760 0.149997 -0.217153
vn -0.000059 1.000000 -0.000016
v 0.215543 0.150003 -0.100197
vn -0.000059 1.000000 -0.000016
v 0.225503 0.150000 -0.320000
vn -0.000059 1.000000 -0.000016
v -0.226871 0.150000 -0.320000
vn 0.000000 1.000000 0.000030
v -0.153350 0.149997 -0.217153
vn 0.000000 1.000000 0.000030
v 0.144760 0.149997 -0.217153
vn 0.000000 1.000000 0.000030
v 0.319016 -0.150000 -0.035000
vn 0.999995 0.000000 0.003311
v 0.319016 0.150000 -0.035000
vn 0.999995 0.000000 0.003311
v 0.317971 -0.090000 0.280599
vn 0.999995 0.000000 0.003311
v 0.318045 0.150000 0.250000
vn 0.999994 0.000493 0.003404
v 0.317971 0.090000 0.280599
vn 0.999994 0.000493 0.003404
v 0.319016 0.150000 -0.035000
vn 0.999994 0.000493 0.003404
v 0.317971 -0.090000 0.280599
vn 0.999994 -0.000493 0.003404
v 0.318045 -0.150000 0.250000
vn 0.999994 -0.000493 0.003404
v 0.319016 -0.150000 -0.035000
vn 0.999994 -0.000493 0.003404
v 0.225503 -0.150000 -0.320000
vn 0.000037 -1.000000 -0.000013
v 0.319016 -0.150000 -0.035000
vn 0.000037 -1.000000 -0.000013
v 0.215543 -0.150003 -0.100197
vn 0.000037 -1.000000 -0.000013
v 0.318045 -0.150000 0.250000
vn 0.000000 -1.000000 -0.000001
v 0.218997 -0.150000 0.250000
vn 0.000000 -1.000000 -0.000001
v 0.319016 -0.150000 -0.035000
vn 0.000000 -1.000000 -0.000001
v 0.319016 -0.150000 -0.035000
vn 0.000024 -1.000000 0.000008
v 0.218997 -0.150000 0.250000
vn 0.000024 -1.000000 0.000008
v 0.215543 -0.150003 -0.100197
vn 0.000024 -1.000000 0.000008
v -0.319417 -0.150000 0.250000
vn 0.000000 -1.000000 -0.000001
v -0.320385 -0.150000 -0.035000
vn 0.000000 -1.000000 -0.000001
v -0.227587 -0.150000 0.250000
vn 0.000000 -1.000000 -0.000001
v -0.224133 -0.150003 -0.100197
vn -0.000026 -1.000000 0.000008
v -0.227587 -0.150000 0.250000
vn -0.000026 -1.000000 0.000008
v -0.320385 -0.150000 -0.035000
vn -0.000026 -1.000000 0.000008
v -0.224133 -0.150003 -0.100197
vn -0.000041 -1.000000 -0.000014
v -0.320385 -0.150000 -0.035000
vn -0.000041 -1.000000 -0.000014
v -0.226871 -0.150000 -0.320000
vn -0.000041 -1.000000 -0.000014
v 0.225503 -0.150000 -0.320000
vn -0.000060 -1.000000 -0.000017
v 0.215543 -0.150003 -0.100197
vn -0.000060 -1.000000 -0.000017
v 0.144760 -0.149997 -0.217153
vn -0.000060 -1.000000 -0.000017
v -0.153350 -0.149997 -0.217153
vn 0.000063 -1.000000 -0.000015
v -0.224133 -0.150003 -0.100197
vn 0.000063 -1.000000 -0.000015
v -0.226871 -0.150000 -0.320000
vn 0.000063 -1.000000 -0.000015
v 0.225503 -0.150000 -0.320000
vn 0.000000 -1.000000 0.000030
v 0.144760 -0.149997 -0.217153
vn 0.000000 -1.000000 0.000030
v -0.226871 -0.150000 -0.320000
vn 0.000000 -1.000000 0.000030
v 0.225503 0.150000 -0.320000
vn 0.000000 0.000001 -1.000000
v 0.225503 -0.150000 -0.320000
vn 0.000000 0.000001 -1.000000
v -0.226871 -0.150000 -0.320000
vn 0.000000 0.000001 -1.000000
v -0.319343 -0.090000 0.280599
vn 0.000000 -0.454312 0.890843
v -0.319417 -0.150000 0.250000
vn 0.000000 -0.454312 0.890843
v -0.227587 -0.150000 0.250000
vn 0.000000 -0.454312 0.890843
v 0.317971 -0.090000 0.280599
vn 0.250802 -0.734995 0.629985
v 0.219000 -0.090000 0.320000
vn 0.250802 -0.734995 0.629985
v 0.218997 -0.150000 0.250000
vn 0.250802 -0.734995 0.629985
v -0.153350 0.149997 -0.217153
vn 0.000000 -0.000001 1.000000
v -0.153350 -0.149997 -0.217153
vn 0.000000 -0.000001 1.000000
v 0.144760 -0.149997 -0.217153
vn 0.000000 -0.000001 1.000000
v 0.218997 0.150000 0.250000
vn 0.250802 0.734994 0.629985
v 0.219000 0.090000 0.320000
vn 0.250802 0.734994 0.629985
v 0.317971 0.090000 0.280599
vn 0.250802 0.734994 0.629985
v 0.144760 -0.149997 -0.217153
vn -0.855521 -0.000000 0.517768
v 0.215543 -0.150003 -0.100197
vn -0.855521 -0.000000 0.517768
v 0.215543 0.150003 -0.100197
vn -0.855521 -0.000000 0.517768
v -0.227587 -0.150000 0.250000
vn 0.999886 -0.011448 0.009861
v -0.224133 -0.150003 -0.100197
vn 0.999886 -0.011448 0.009861
v -0.227590 -0.090000 0.320000
vn 0.999886 -0.011448 0.009861
v -0.224133 0.150003 -0.100197
vn 0.999886 0.011448 0.009861
v -0.227587 0.150000 0.250000
vn 0.999886 0.011448 0.009861
v -0.227590 0.090000 0.320000
vn 0.999886 0.011448 0.009861
v -0.227590 0.090000 0.320000
vn 0.999966 0.000000 0.008227
v -0.227590 -0.090000 0.320000
vn 0.999966 0.000000 0.008227
v -0.224133 -0.150003 -0.100197
vn 0.999966 0.000000 0.008227
v -0.224133 -0.150003 -0.100197
vn 0.855521 -0.000000 0.517768
v -0.153350 -0.149997 -0.217153
vn 0.855521 -0.000000 0.517768
v -0.153350 0.149997 -0.217153
vn 0.855521 -0.000000 0.517768
v 0.219000 -0.090000 0.320000
vn -0.999966 0.000000 0.008227
v 0.219000 0.090000 0.320000
vn -0.999966 0.000000 0.008227
v 0.215543 0.150003 -0.100197
vn -0.999966 0.000000 0.008227
v 0.218997 0.150000 0.250000
vn -0.999886 0.011448 0.009861
v 0.215543 0.150003 -0.100197
vn -0.999886 0.011448 0.009861
v 0.219000 0.090000 0.320000
vn -0.999886 0.011448 0.009861
v 0.215543 -0.150003 -0.100197
vn -0.999886 -0.011450 0.009861
v 0.218997 -0.150000 0.250000
vn -0.999886 -0.011450 0.009861
v 0.219000 -0.090000 0.320000
vn -0.999886 -0.011450 0.009861
v -0.227587 0.150000 0.250000
vn 0.000000 0.454312 0.890843
v -0.319417 0.150000 0.250000
vn 0.000000 0.454312 0.890843
v -0.319356 0.090000 0.280599
vn 0.000000 0.454312 0.890843
v -0.319343 -0.090000 0.280599
vn -0.394583 -0.000001 0.918860
v -0.227590 -0.090000 0.320000
vn -0.394583 -0.000001 0.918860
v -0.227590 0.090000 0.320000
vn -0.394583 -0.000001 0.918860
v 0.317971 -0.090000 0.280599
vn 0.369874 -0.000001 0.929082
v 0.317971 0.090000 0.280599
vn 0.369874 -0.000001 0.929082
v 0.219000 0.090000 0.320000
vn 0.369874 -0.000001 0.929082
v 0.319016 0.150000 -0.035000
vn 0.950160 0.000000 -0.311762
v 0.319016 -0.150000 -0.035000
vn 0.950160 0.000000 -0.311762
v 0.225503 -0.150000 -0.320000
vn 0.950160 0.000000 -0.311762
v -0.319417 0.150000 0.250000
vn -0.999994 0.000704 0.003397
v -0.320386 0.150000 -0.035000
vn -0.999994 0.000704 0.003397
v -0.319356 0.090000 0.280599
vn -0.999994 0.000704 0.003397
v -0.320385 -0.150000 -0.035000
vn -0.999994 -0.000500 0.003398
v -0.319417 -0.150000 0.250000
vn -0.999994 -0.000500 0.003398
v -0.319343 -0.090000 0.280599
vn -0.999994 -0.000500 0.003398
v -0.319343 -0.090000 0.280599
vn -0.999995 -0.000071 0.003250
v -0.319356 0.090000 0.280599
vn -0.999995 -0.000071 0.003250
v -0.320386 0.150000 -0.035000
vn -0.999995 -0.000071 0.003250
v -0.226871 0.150000 -0.320000
vn -0.950159 -0.000001 -0.311767
v -0.226871 -0.150000 -0.320000
vn -0.950159 -0.000001 -0.311767
v -0.320385 -0.150000 -0.035000
vn -0.950159 -0.000001 -0.311767
v 0.400000 0.300000 -0.491743
vn 0.000000 0.000001 -1.000000
v -0.400000 -0.300000 -0.491744
vn 0.000000 0.000001 -1.000000
v -0.400000 0.300000 -0.491743
vn 0.000000 0.000001 -1.000000
v -0.400000 0.300000 -0.253602
vn 0.000000 -0.000001 1.000000
v 0.400000 -0.300000 -0.253602
vn 0.000000 -0.000001 1.000000
v 0.400000 0.300000 -0.253602
vn 0.000000 -0.000001 1.000000
v 0.400000 0.300000 -0.253602
vn 1.000000 0.000000 -0.000000
v 0.400000 -0.300000 -0.491744
vn 1.000000 0.000000 -0.000000
v 0.400000 0.300000 -0.491743
vn 1.000000 0.000000 -0.000000
v 0.400000 -0.300000 -0.253602
vn -0.000000 -1.000000 -0.000002
v -0.400000 -0.300000 -0.491744
vn -0.000000 -1.000000 -0.000002
v 0.400000 -0.300000 -0.491744
vn -0.000000 -1.000000 -0.000002
v -0.400000 -0.300000 -0.491744
vn -1.000000 0.000000 -0.000000
v -0.400000 0.300000 -0.253602
vn -1.000000 0.000000 -0.000000
v -0.400000 0.300000 -0.491743
vn -1.000000 0.000000 -0.000000
v 0.400000 0.300000 -0.491743
vn 0.000000 1.000000 0.000001
v -0.400000 0.300000 -0.253602
vn 0.000000 1.000000 0.000001
v 0.400000 0.300000 -0.253602
vn 0.000000 1.000000 0.000001
v 0.400000 0.300000 -0.491743
vn 0.000000 0.000000 -1.000000
v 0.400000 -0.300000 -0.491744
vn 0.000000 0.000000 -1.000000
v -0.400000 -0.300000 -0.491744
vn 0.000000 0.000000 -1.000000
v -0.400000 0.300000 -0.253602
vn 0.000000 -0.000000 1.000000
v -0.400000 -0.300000 -0.253602
vn 0.000000 -0.000000 1.000000
v 0.400000 -0.300000 -0.253602
vn 0.000000 -0.000000 1.000000
v 0.400000 0.300000 -0.253602
vn 1.000000 -0.000000 0.000001
v 0.400000 -0.300000 -0.253602
vn 1.000000 -0.000000 0.000001
v 0.400000 -0.300000 -0.491744
vn 1.000000 -0.000000 0.000001
v 0.400000 -0.300000 -0.253602
vn -0.000000 -1.000000 -0.000001
v -0.400000 -0.300000 -0.253602
vn -0.000000 -1.000000 -0.000001
v -0.400000 -0.300000 -0.491744
vn -0.000000 -1.000000 -0.000001
v -0.400000 -0.300000 -0.491744
vn -1.000000 0.000000 -0.000000
v -0.400000 -0.300000 -0.253602
vn -1.000000 0.000000 -0.000000
v -0.400000 0.300000 -0.253602
vn -1.000000 0.000000 -0.000000
v 0.400000 0.300000 -0.491743
vn 0.000000 1.000000 0.000001
v -0.400000 0.300000 -0.491743
vn 0.000000 1.000000 0.000001
v -0.400000 0.300000 -0.253602
vn 0.000000 1.000000 0.000001
f 1//1 2//2 3//3
f 4//4 5//5 6//6
f 7//7 8//8 9//9
f 10//10 11//11 12//12
f 13//13 14//14 15//15
f 16//16 17//17 18//18
f 19//19 20//20 21//21
f 22//22 23//23 24//24
f 25//25 26//26 22//22
f 16//16 27//27 25//25
f 28//28 29//29 30//30
f 31//31 32//32 33//33
f 34//34 35//35 32//32
f 36//36 37//37 38//38
f 39//39 31//31 40//40
f 41//41 34//34 31//31
f 42//42 43//43 34//34
f 44//44 45//45 46//46
f 47//47 41//41 39//39
f 48//48 42//42 41//41
f 49//49 50//50 42//42
f 51//51 52//52 53//53
f 54//54 48//48 47//47
f 55//55 49//49 48//48
f 56//56 57//57 49//49
f 58//58 59//59 60//60
f 61//61 55//55 54//54
f 62//62 56//56 55//55
f 63//63 64//64 56//56
f 65//65 66//66 67//67
f 68//68 69//69 70//70
f 71//71 72//72 73//73
f 74//74 75//75 76//76
f 77//77 78//78 79//79
f 80//80 81//81 82//82
f 83//83 84//84 85//85
f 86//86 87//87 88//88
f 89//89 90//90 91//91
f 92//92 93//93 94//94
f 95//95 96//96 97//97
f 98//98 99//99 100//100
f 101//101 102//102 99//99
f 103//103 104//104 105//105
f 106//106 107//107 108//108
f 109//109 101//101 98//98
f 110//110 111//111 101//101
f 112//112 113//113 114//114
f 115//115 116//116 117//117
f 118//118 110//110 109//109
f 119//119 120//120 110//110
f 121//121 122//122 123//123
f 124//124 125//125 126//126
f 127//127 128//128 129//129
f 130//130 131//131 128//128
f 132//132 133//133 134//134
f 135//135 136//136 137//137
f 138//138 139//139 140//140
f 141//141 142//142 143//143
f 144//144 145//145 146//146
f 147//147 148//148 149//149
f 150//150 151//151 152//152
f 153//153 154//154 155//155
f 156//156 157//157 158//158
f 159//159 160//160 161//161
f 162//162 163//163 164//164
f 165//165 166//166 167//167
f 168//168 169//169 170//170
f 171//171 172//172 173//173
f 174//174 175//175 176//176
f 177//177 178//178 175//175
f 179//179 180//180 181//181
f 182//182 183//183 184//184
f 185//185 186//186 187//187
f 188//188 189//189 190//190
f 191//191 192//192 193//193
f 194//194 195//195 196//196
f 197//197 198//198 199//199
f 200//200 201//201 202//202
f 203//203 204//204 205//205
f 206//206 207//207 208//208
f 209//209 210//210 211//211
f 212//212 213//213 214//214
f 215//215 216//216 217//217
f 218//218 219//219 220//220
f 221//221 222//222 223//223
f 224//224 225//225 226//226
f 227//227 228//228 229//229
f 230//230 231//231 232//232
f 233//233 234//234 235//235
f 236//236 237//237 238//238
f 239//239 240//240 241//241
f 242//242 243//243 244//244
f 245//245 246//246 247//247
f 248//248 249//249 250//250
f 251//251 252//252 253//253
f 254//254 255//255 256//256
f 257//257 258//258 259//259
f 260//260 261//261 262//262
f 263//263 264//264 265//265
f 266//266 267//267 268//268
f 269//269 270//270 271//271
f 272//272 273//273 274//274
f 275//275 276//276 277//277
f 278//278 279//279 280//280
f 281//281 282//282 283//283
f 284//284 285//285 286//286
f 287//287 288//288 289//289
f 290//290 291//291 292//292
f 293//293 294//294 295//295
f 296//296 297//297 298//298
f 299//299 300//300 301//301
f 302//302 303//303 304//304
f 305//305 306//306 307//307
f 308//308 309//309 310//310
f 311//311 312//312 313//313
f 314//314 315//315 316//316
f 317//317 318//318 319//319
f 320//320 321//321 322//322
f 323//323 324//324 325//325
f 326//326 327//327 328//328
f 329//329 330//330 331//331
f 332//332 333//333 334//334
f 335//335 336//336 337//337
f 338//338 339//339 340//340
f 341//341 342//342 343//343
f 344//344 345//345 346//346
f 347//347 348//348 349//349
f 350//350 351//351 352//352
f 353//353 354//354 355//355
f 356//356 357//357 358//358
f 359//359 360//360 361//361
f 362//362 363//363 364//364
f 365//365 366//366 367//367
f 368//368 369//369 370//370
f 371//371 372//372 373//373
f 374//374 375//375 376//376
f 377//377 378//378 379//379
f 380//380 381//381 382//382
f 383//383 384//384 385//385
f 386//386 387//387 388//388
f 389//389 390//390 391//391
f 392//392 393//393 394//394
f 395//395 396//396 397//397
f 398//398 399//399 400//400
f 401//401 402//402 403//403
f 404//404 405//405 406//406
f 407//407 408//408 409//409
f 410//410 411//411 412//412
f 413//413 414//414 415//415
f 416//416 417//417 418//418
f 419//419 420//420 421//421
f 422//422 423//423 424//424
f 425//425 426//426 427//427
f 428//428 429//429 430//430
f 431//431 432//432 433//433
f 434//434 435//435 436//436
f 24//24 23//23 437//437
f 22//22 26//26 23//23
f 25//25 27//27 26//26
f 16//16 18//18 27//27
f 438//438 40//40 31//31
f 439//439 440//440 441//441
f 34//34 43//43 35//35
f 43//43 24//24 442//442
f 39//39 41//41 31//31
f 443//443 444//444 445//445
f 42//42 50//50 43//43
f 50//50 22//22 24//24
f 47//47 48//48 41//41
f 446//446 447//447 448//448
f 49//49 57//57 50//50
f 57//57 25//25 22//22
f 54//54 55//55 48//48
f 449//449 450//450 451//451
f 56//56 64//64 57//57
f 64//64 16//16 25//25
f 61//61 62//62 55//55
f 452//452 453//453 454//454
f 63//63 455//455 64//64
f 455//455 456//456 16//16
f 457//457 458//458 459//459
f 71//71 460//460 72//72
f 461//461 462//462 463//463
f 77//77 464//464 78//78
f 465//465 466//466 467//467
f 468//468 469//469 470//470
f 471//471 472//472 473//473
f 474//474 475//475 476//476
f 477//477 478//478 479//479
f 480//480 481//481 482//482
f 98//98 101//101 99//99
f 483//483 484//484 485//485
f 103//103 486//486 104//104
f 487//487 488//488 489//489
f 109//109 110//110 101//101
f 490//490 491//491 492//492
f 493//493 494//494 495//495
f 496//496 497//497 498//498
f 118//118 119//119 110//110
f 499//499 500//500 501//501
f 502//502 503//503 504//504
f 505//505 506//506 507//507
f 508//508 509//509 510//510
f 511//511 512//512 513//513
f 514//514 515//515 516//516
f 517//517 518//518 519//519
f 520//520 521//521 522//522
f 523//523 524//524 525//525
f 526//526 527//527 528//528
f 529//529 530//530 531//531
f 532//532 533//533 534//534
f 535//535 536//536 537//537
f 538//538 539//539 540//540
f 541//541 542//542 543//543
f 544//544 545//545 546//546
f 547//547 548//548 549//549
f 550//550 551//551 552//552
f 553//553 554//554 555//555
f 174//174 177//177 175//175
f 556//556 557//557 558//558
f 559//559 560//560 561//561
f 562//562 563//563 564//564
f 565//565 566//566 567//567
f 568//568 569//569 570//570
f 571//571 572//572 573//573
f 194//194 574//574 195//195
f 575//575 576//576 200//200
f 198//198 577//577 578//578
f 579//579 580//580 581//581
f 582//582 583//583 584//584
f 585//585 586//586 587//587
f 588//588 589//589 590//590
f 591//591 592//592 593//593
f 594//594 595//595 596//596
f 597//597 598//598 599//599
f 600//600 601//601 602//602
f 603//603 604//604 605//605
f 606//606 607//607 608//608
f 609//609 610//610 611//611
f 612//612 613//613 614//614
f 615//615 616//616 617//617
f 618//618 619//619 620//620
f 621//621 622//622 623//623
f 624//624 625//625 626//626
f 627//627 628//628 629//629
f 630//630 631//631 632//632
f 633//633 634//634 635//635
f 636//636 637//637 638//638
f 639//639 640//640 641//641
f 642//642 643//643 644//644
f 645//645 646//646 647//647
f 648//648 649//649 650//650
f 651//651 652//652 653//653
f 654//654 655//655 656//656
f 657//657 658//658 659//659
f 660//660 661//661 662//662
f 663//663 664//664 665//665
f 666//666 667//667 668//668
f 669//669 670//670 671//671
f 672//672 673//673 674//674
f 675//675 676//676 677//677
f 678//678 679//679 305//305
f 680//680 681//681 682//682
f 683//683 684//684 685//685
f 686//686 687//687 688//688
f 689//689 690//690 691//691
f 692//692 693//693 694//694
f 695//695 696//696 697//697
f 698//698 699//699 700//700
f 701//701 702//702 703//703
f 704//704 705//705 706//706
f 707//707 708//708 709//709
f 710//710 711//711 712//712
f 713//713 714//714 715//715
f 716//716 717//717 718//718
f 719//719 720//720 721//721
f 722//722 723//723 724//724
f 725//725 726//726 727//727
f 728//728 729//729 730//730
f 731//731 732//732 733//733
f 734//734 735//735 736//736
f 737//737 738//738 739//739
f 740//740 741//741 742//742
f 743//743 744//744 745//745
f 746//746 747//747 748//748
f 749//749 750//750 751//751
f 752//752 753//753 754//754
f 755//755 756//756 757//757
f 758//758 759//759 760//760
f 761//761 762//762 763//763
f 764//764 765//765 766//766
f 767//767 768//768 769//769
f 770//770 771//771 772//772
f 773//773 774//774 775//775
f 776//776 777//777 778//778
f 779//779 780//780 781//781
f 782//782 783//783 784//784
f 785//785 786//786 787//787
f 788//788 789//789 790//790
f 791//791 792//792 793//793
f 794//794 795//795 796//796
f 797//797 798//798 799//799
f 800//800 801//801 802//802
f 803//803 804//804 805//805
f 806//806 807//807 808//808
f 809//809 810//810 811//811
f 812//812 813//813 814//814
f 815//815 816//816 817//817
f 818//818 819//819 820//820
f 821//821 822//822 823//823
f 824//824 825//825 826//826
f 827//827 828//828 829//829
f 830//830 831//831 832//832
f 833//833 834//834 835//835
f 836//836 837//837 838//838
f 839//839 840//840 841//841
f 842//842 843//843 844//844
f 845//845 846//846 847//847
f 848//848 849//849 850//850
f 851//851 852//852 853//853
f 854//854 855//855 856//856
f 857//857 858//858 859//859
f 860//860 861//861 862//862
f 863//863 864//864 865//865
f 866//866 867//867 868//868
f 869//869 870//870 871//871
f 872//872 873//873 874//874
f 875//875 876//876 877//877
f 878//878 879//879 880//880
f 881//881 882//882 883//883
f 884//884 885//885 886//886
f 887//887 888//888 889//889
f 890//890 891//891 892//892
f 893//893 894//894 895//895
f 896//896 897//897 898//898
f 899//899 900//900 901//901
f 902//902 903//903 904//904
f 905//905 906//906 907//907
f 908//908 909//909 910//910
f 911//911 912//912 913//913
f 914//914 915//915 916//916
f 917//917 918//918 919//919
f 920//920 921//921 922//922
f 923//923 924//924 925//925
f 926//926 927//927 928//928
f 929//929 930//930 931//931
f 932//932 933//933 934//934
f 935//935 936//936 937//937
f 938//938 939//939 940//940
f 941//941 942//942 943//943
f 944//944 945//945 946//946
f 947//947 948//948 949//949
f 950//950 951//951 952//952
f 953//953 954//954 955//955
f 956//956 957//957 958//958
f 959//959 960//960 961//961
f 962//962 963//963 964//964
f 965//965 966//966 967//967
f 968//968 969//969 970//970
f 971//971 972//972 973//973
f 974//974 975//975 976//976
f 977//977 978//978 979//979
f 980//980 981//981 982//982
f 983//983 984//984 985//985
f 986//986 987//987 988//988
f 989//989 990//990 991//991
f 992//992 993//993 994//994
f 995//995 996//996 997//997
f 998//998 999//999 1000//1000
f 1001//1001 1002//1002 1003//1003
f 1004//1004 1005//1005 1006//1006
f 1007//1007 1008//1008 1009//1009
